<?xml version="1.0" encoding="UTF-8"?>
<!DOCTYPE svg PUBLIC "-//W3C//DTD SVG 1.1//EN" "http://www.w3.org/Graphics/SVG/1.1/DTD/svg11.dtd">
<!-- Creator: CorelDRAW (Evaluation Version) -->
<svg xmlns="http://www.w3.org/2000/svg" xml:space="preserve" width="50in" height="49.0479in" version="1.1" style="shape-rendering:geometricPrecision; text-rendering:geometricPrecision; image-rendering:optimizeQuality; fill-rule:evenodd; clip-rule:evenodd"
viewBox="0 0 11989.62 11761.31"
 xmlns:xlink="http://www.w3.org/1999/xlink"
 xmlns:xodm="http://www.corel.com/coreldraw/odm/2003">
 <defs>
  <style type="text/css">
   <![CDATA[
    .fil0 {fill:#CCCCCC}
   ]]>
  </style>
 </defs>
 <g id="Layer_x0020_1">
  <metadata id="CorelCorpID_0Corel-Layer"/>
  <path class="fil0" d="M10034.05 5307.21l-9271.94 -0.02c-379.86,-0.41 -762.07,82.88 -762.11,572.93 -0.02,197.4 82.28,353.88 202.27,445.44 157.96,120.54 297.08,127.92 540.74,127.55l9291.03 -0.04c-28.24,53.57 -95.02,94.91 -176.43,176.81l-515.26 516.03c-233.54,234.1 -453.24,454.14 -687,688.05 -466.04,466.36 -917.24,919.53 -1383.93,1385.27l-1552.68 1559.93c-65.93,67.12 -98.88,107.83 -140.43,204.43 -194.97,453.33 317.4,961.6 788.67,711.71 115.74,-61.37 114.89,-82.01 195.94,-167.08 449.16,-471.42 922.62,-922.29 1384.77,-1384.44 1247.22,-1247.22 2546.03,-2573.89 3800.3,-3800.66 116.59,-114.03 241.61,-212.27 241.61,-462.97 0,-241.27 -116.99,-343.49 -231.98,-453.51l-1031.2 -1031.39c-1374.63,-1374.63 -2804.69,-2773.2 -4154.03,-4153.55 -107.4,-109.87 -207.33,-235.04 -443.86,-241.47 -503.12,-13.67 -788.19,600.32 -429.32,962.39l3633.59 3642.2c119.13,119.42 224.34,224.67 343.52,343.99l257.6 257.84c56.47,50.94 65.64,35.18 100.11,100.56z"/>
 </g>
</svg>
