<?xml version="1.0" encoding="UTF-8"?>
<!DOCTYPE svg PUBLIC "-//W3C//DTD SVG 1.1//EN" "http://www.w3.org/Graphics/SVG/1.1/DTD/svg11.dtd">
<!-- Creator: CorelDRAW (Evaluation Version) -->
<svg xmlns="http://www.w3.org/2000/svg" xml:space="preserve" width="50in" height="49.0443in" version="1.1" style="shape-rendering:geometricPrecision; text-rendering:geometricPrecision; image-rendering:optimizeQuality; fill-rule:evenodd; clip-rule:evenodd"
viewBox="0 0 9684.52 9498.5"
 xmlns:xlink="http://www.w3.org/1999/xlink"
 xmlns:xodm="http://www.corel.com/coreldraw/odm/2003">
 <defs>
  <style type="text/css">
   <![CDATA[
    .fil0 {fill:#CCCCCC}
   ]]>
  </style>
 </defs>
 <g id="Layer_x0020_1">
  <metadata id="CorelCorpID_0Corel-Layer"/>
  <path class="fil0" d="M1580.38 5212l7488.68 0.02c305.69,0.33 615.38,-63.05 615.47,-462.77 0.03,-154.71 -70.78,-290.45 -161.69,-361.19 -116.39,-90.56 -254.38,-101.86 -438.36,-101.58l-7504.1 0.03c47.51,-93.83 2156.7,-2169.13 2226.42,-2239.02 376.08,-377.03 740.99,-742.52 1117.06,-1119.53 163.15,-163.56 441.03,-386.69 199.13,-731.43 -64.52,-91.95 -183.3,-191.59 -357.47,-196.32 -198.56,-5.39 -290.49,91.9 -381.68,187.2 -364.44,380.85 -744.53,744.37 -1118.38,1118.23 -236.95,236.95 -3129.93,3099.14 -3201.49,3215.72 -82,133.59 -86.42,310.59 -5.91,446.26 65.02,109.58 854.2,872.04 963.1,980.94 1110.56,1110.56 2264.4,2239.48 3355.04,3354.76 87.03,89 171.33,190.02 358.52,195.01 328.7,8.76 554.75,-324.95 452.36,-605.18 -53.33,-145.96 -166.4,-225.55 -255.51,-314.89l-2235.92 -2237.27c-93.5,-93.46 -1072.97,-1045.48 -1115.26,-1129z"/>
 </g>
</svg>
