<?xml version="1.0" encoding="UTF-8"?>
<!DOCTYPE svg PUBLIC "-//W3C//DTD SVG 1.1//EN" "http://www.w3.org/Graphics/SVG/1.1/DTD/svg11.dtd">
<!-- Creator: CorelDRAW (Evaluation Version) -->
<svg xmlns="http://www.w3.org/2000/svg" xml:space="preserve" width="50in" height="49.0479in" version="1.1" style="shape-rendering:geometricPrecision; text-rendering:geometricPrecision; image-rendering:optimizeQuality; fill-rule:evenodd; clip-rule:evenodd"
viewBox="0 0 10496.11 10296.24"
 xmlns:xlink="http://www.w3.org/1999/xlink"
 xmlns:xodm="http://www.corel.com/coreldraw/odm/2003">
 <defs>
  <style type="text/css">
   <![CDATA[
    .fil0 {fill:#CCCCCC}
   ]]>
  </style>
 </defs>
 <g id="Layer_x0020_1">
  <metadata id="CorelCorpID_0Corel-Layer"/>
  <path class="fil0" d="M1711.97 4646.11l8116.96 -0.02c332.55,-0.36 667.14,72.55 667.18,501.56 0.02,172.81 -72.03,309.8 -177.08,389.96 -138.29,105.53 -260.08,111.99 -473.38,111.67l-8133.68 -0.04c24.72,46.9 83.19,83.09 154.46,154.79l451.08 451.75c204.44,204.94 396.79,397.57 601.42,602.34 407.99,408.27 802.98,804.99 1211.53,1212.71l1359.27 1365.62c57.71,58.76 86.56,94.4 122.93,178.96 170.69,396.86 -277.86,841.82 -690.43,623.05 -101.32,-53.72 -100.58,-71.79 -171.54,-146.27 -393.21,-412.7 -807.69,-807.4 -1212.27,-1211.98 -1091.86,-1091.86 -2228.88,-2253.27 -3326.91,-3327.22 -102.06,-99.83 -211.51,-185.82 -211.51,-405.3 0,-211.21 102.42,-300.7 203.08,-397.02l902.74 -902.91c1203.39,-1203.4 2455.31,-2427.75 3636.57,-3636.16 94.02,-96.19 181.51,-205.76 388.57,-211.39 440.45,-11.97 690.01,525.54 375.84,842.51l-3180.96 3188.5c-104.29,104.55 -196.39,196.68 -300.73,301.14l-225.51 225.72c-49.43,44.59 -57.46,30.8 -87.64,88.04z"/>
 </g>
</svg>
