<svg xmlns="http://www.w3.org/2000/svg" width="300px" height="300px" style="fill-rule:evenodd" viewBox="0 0 5958.35 4830.66" fill="#cccccc" >
  <path d="M4399.89 0l1301.88 0c141.14,0 256.59,115.45 256.59,256.59l0 4317.49c0,141.14 -115.45,256.59 -256.59,256.59l-1301.88 0c-141.14,0 -256.59,-115.45 -256.59,-256.59l0 -4317.49c0,-141.14 115.45,-256.59 256.59,-256.59zm-4143.3 0l1301.88 0c141.14,0 256.59,115.45 256.59,256.59l0 3618.25c0,141.14 -115.45,256.59 -256.59,256.59l-1301.88 0c-141.14,0 -256.59,-115.45 -256.59,-256.59l0 -3618.25c0,-141.14 115.45,-256.59 256.59,-256.59zm0.58 141.32l1300.71 0c63.72,0 115.85,52.13 115.85,115.85l0 587.8c0,63.72 -52.13,115.85 -115.85,115.85l-1300.71 0c-63.72,0 -115.85,-52.13 -115.85,-115.85l0 -587.8c0,-63.72 52.13,-115.85 115.85,-115.85zm0 1924.39l1300.71 0c63.72,0 115.85,52.13 115.85,115.85l0 587.8c0,63.72 -52.13,115.85 -115.85,115.85l-1300.71 0c-63.72,0 -115.85,-52.13 -115.85,-115.85l0 -587.8c0,-63.72 52.13,-115.85 115.85,-115.85zm0 -963.58l1300.71 0c63.72,0 115.85,52.13 115.85,115.85l0 587.8c0,63.72 -52.13,115.85 -115.85,115.85l-1300.71 0c-63.72,0 -115.85,-52.13 -115.85,-115.85l0 -587.8c0,-63.72 52.13,-115.85 115.85,-115.85zm2071.08 -1102.13l1301.88 0c141.14,0 256.59,115.45 256.59,256.59l0 2571.52c0,141.14 -115.45,256.59 -256.59,256.59l-1301.88 0c-141.14,0 -256.59,-115.45 -256.59,-256.59l0 -2571.52c0,-141.14 115.45,-256.59 256.59,-256.59zm0.58 141.32l1300.71 0c63.72,0 115.85,52.13 115.85,115.85l0 587.8c0,63.72 -52.13,115.85 -115.85,115.85l-1300.71 0c-63.72,0 -115.85,-52.13 -115.85,-115.85l0 -587.8c0,-63.72 52.13,-115.85 115.85,-115.85zm2071.65 960.81l1300.71 0c63.72,0 115.85,52.13 115.85,115.85l0 587.8c0,63.72 -52.13,115.85 -115.85,115.85l-1300.71 0c-63.72,0 -115.85,-52.13 -115.85,-115.85l0 -587.8c0,-63.72 52.13,-115.85 115.85,-115.85zm0 -960.81l1300.71 0c63.72,0 115.85,52.13 115.85,115.85l0 587.8c0,63.72 -52.13,115.85 -115.85,115.85l-1300.71 0c-63.72,0 -115.85,-52.13 -115.85,-115.85l0 -587.8c0,-63.72 52.13,-115.85 115.85,-115.85z"/>
</svg>
