<?xml version="1.0" encoding="UTF-8"?>
<!DOCTYPE svg PUBLIC "-//W3C//DTD SVG 1.1//EN" "http://www.w3.org/Graphics/SVG/1.1/DTD/svg11.dtd">
<!-- Creator: CorelDRAW (Evaluation Version) -->
<svg xmlns="http://www.w3.org/2000/svg" xml:space="preserve" width="50in" height="49.9982in" version="1.1" style="shape-rendering:geometricPrecision; text-rendering:geometricPrecision; image-rendering:optimizeQuality; fill-rule:evenodd; clip-rule:evenodd"
viewBox="0 0 4426.89 4426.74"
 xmlns:xlink="http://www.w3.org/1999/xlink"
 xmlns:xodm="http://www.corel.com/coreldraw/odm/2003">
 <defs>
  <style type="text/css">
   <![CDATA[
    .fil0 {fill:#CBCBCB}
   ]]>
  </style>
 </defs>
 <g id="Layer_x0020_1">
  <metadata id="CorelCorpID_0Corel-Layer"/>
  <path class="fil0" d="M2105.01 1.9c-455.97,16.94 -879.96,188.77 -1222.06,443.64l-224.37 191.11c-26.28,24.05 -41.27,48.36 -64.97,73.52 -32.2,34.18 -25.8,20.47 -66.97,71.24 -364.41,449.42 -546.91,934.8 -524.86,1544.13 14.41,398.24 142.28,739.12 331.26,1053.3 85.86,142.74 192.45,267.59 303.53,388.95 24.05,26.28 48.36,41.27 73.52,64.97 34.18,32.2 20.47,25.8 71.24,66.97 7.7,6.25 10.72,7.37 19.04,14.32 81.52,68.04 126.4,99.19 220.48,161.71 386.9,257.13 820.04,362.7 1302.9,349.95 454.75,-12 871.87,-190.35 1219,-445.26 27.93,-20.51 53.37,-40.11 77.37,-61.16 14.33,-12.57 20.41,-16.11 36.47,-29.98 100.58,-86.84 124.82,-118.76 210.53,-204.79 8.71,-8.74 7.63,-9.43 14.68,-18.68l32.17 -39.84c141.31,-169.3 268.16,-371.44 352.19,-583.84 123.68,-312.6 169.12,-573.29 159.47,-939.65 -8.41,-319.31 -106.31,-625.32 -232.87,-877.59 -67.73,-135.01 -178.38,-310.16 -273.55,-418.67l-62.91 -75.63c-52.51,-46.85 -53.11,-62.39 -139.46,-137.55 -24.61,-21.42 -29.3,-31.81 -71.89,-66.36 -7.7,-6.25 -10.72,-7.37 -19.03,-14.32 -9.82,-8.2 -8.01,-7.91 -17.73,-15.44 -445.42,-345.37 -907.65,-517.18 -1503.19,-495.06z"/>
 </g>
</svg>
