<?xml version="1.0" encoding="UTF-8"?>
<!DOCTYPE svg PUBLIC "-//W3C//DTD SVG 1.1//EN" "http://www.w3.org/Graphics/SVG/1.1/DTD/svg11.dtd">
<!-- Creator: CorelDRAW (Evaluation Version) -->
<svg xmlns="http://www.w3.org/2000/svg" xml:space="preserve" width="50in" height="49.9999in" version="1.1" style="shape-rendering:geometricPrecision; text-rendering:geometricPrecision; image-rendering:optimizeQuality; fill-rule:evenodd; clip-rule:evenodd"
viewBox="0 0 8766.96 8766.94"
 xmlns:xlink="http://www.w3.org/1999/xlink"
 xmlns:xodm="http://www.corel.com/coreldraw/odm/2003">
 <defs>
  <style type="text/css">
   <![CDATA[
    .fil0 {fill:#CCCCCC}
   ]]>
  </style>
 </defs>
 <g id="Layer_x0020_1">
  <metadata id="CorelCorpID_0Corel-Layer"/>
  <path class="fil0" d="M3668.72 4383.72c-39.19,77.38 -403.05,419.12 -492.35,508.31l-2522.98 2522.61c-172.12,172.54 -327.19,334.99 -506.57,502.04 -193.08,179.81 -197.1,524.11 -3.79,707.37 189.38,179.53 509.23,199.27 699.49,5.15l3276.41 -3282.37c74.95,-75.13 175.71,-203.26 264.63,-248.29 96.26,48.75 1949.04,1935.27 2020.82,2007.19 451.42,452.37 1091.44,1062.96 1512.15,1514.72 188.96,202.91 514.74,186.39 707.56,3.59 189.76,-179.88 189.61,-518.31 4.96,-699.3 -1008.75,-988.74 -2026.95,-2022.28 -3029.89,-3024.32 -91.52,-91.43 -460.99,-438.19 -500.76,-516.72 26.12,-49.55 456.88,-457.76 499.87,-500.8l3023.07 -3031.25c197.01,-197.11 190.23,-510.52 2.57,-708.47 -181.11,-191.04 -516.02,-188.37 -700.15,-5.87l-3409.79 3401.32c-23.72,23.48 -36.49,35.37 -57.17,60.07 -45.7,54.56 -13.33,38.61 -73.22,70.18 -49.55,-26.12 -457.76,-456.88 -500.8,-499.87l-2522.98 -2522.61c-173.58,-174 -325.94,-318.23 -508.27,-500.46 -187.36,-187.26 -520.49,-200.85 -708.28,-2.76 -180.89,190.81 -197.96,506.74 -6.06,700.34l3531.57 3540.18z"/>
 </g>
</svg>
