<?xml version="1.0" encoding="UTF-8"?>
<!DOCTYPE svg PUBLIC "-//W3C//DTD SVG 1.1//EN" "http://www.w3.org/Graphics/SVG/1.1/DTD/svg11.dtd">
<!-- Creator: CorelDRAW (Evaluation Version) -->
<svg xmlns="http://www.w3.org/2000/svg" xml:space="preserve" width="50.0073in" height="50in" version="1.1" style="shape-rendering:geometricPrecision; text-rendering:geometricPrecision; image-rendering:optimizeQuality; fill-rule:evenodd; clip-rule:evenodd"
viewBox="0 0 23829.86 23826.36"
 xmlns:xlink="http://www.w3.org/1999/xlink"
 xmlns:xodm="http://www.corel.com/coreldraw/odm/2003">
 <defs>
  <style type="text/css">
   <![CDATA[
    .fil0 {fill:#C6C6C6}
   ]]>
  </style>
 </defs>
 <g id="Layer_x0020_1">
  <metadata id="CorelCorpID_0Corel-Layer"/>
  <path class="fil0" d="M11587.14 23820.7c2926.72,12.67 5869.13,0.09 8798.84,0.09 243.5,0 486.99,0 730.49,0 698.08,0 1267.06,64.94 1853.21,-354.2 119.21,-85.25 119.49,-98.69 200.61,-164.61 97.42,-79.17 264.28,-273.84 337.99,-392.74 333.69,-538.3 316,-829.08 316,-1518.36 0,-2934.99 12.6,-5882.72 -0.09,-8814.72l-12227.91 0 -9.14 0 0 11244.54zm-11583.65 -13234.03l23820.79 0 0 -8434.66c0,-482.65 -46.87,-771.92 -257.22,-1148.34 -79.05,-141.47 -271.12,-382.18 -391.54,-481.96 -135.44,-112.23 -118.03,-112.45 -302.08,-230.11 -323.3,-206.69 -664.6,-291.89 -1113.84,-291.61l-19683.52 0c-541.31,-0.22 -941.73,125.6 -1321.17,433.76l-345.92 352.97c-47.48,60.99 -102.08,136.95 -145.45,211.82 -207.83,358.78 -260.07,680.95 -260.07,1145.51l0 8442.61zm9594.16 13234.12l-0.01 -11249.57 -9593.91 0c-8.25,101.91 -0.24,1165.88 -0.24,1300.38l0 7813.06c0,540.04 91.55,967.83 419.43,1367.32 113.18,137.89 158.31,173.75 277.81,293.75l138.74 107.62c254.66,185.62 559.02,311.75 945.81,356.5 191.66,22.18 1035.25,10.93 1291.28,10.93 2173.7,0 4347.4,0 6521.1,0z"/>
 </g>
</svg>
