<?xml version="1.0" encoding="UTF-8"?>
<!DOCTYPE svg PUBLIC "-//W3C//DTD SVG 1.1//EN" "http://www.w3.org/Graphics/SVG/1.1/DTD/svg11.dtd">
<!-- Creator: CorelDRAW (Evaluation Version) -->
<svg xmlns="http://www.w3.org/2000/svg" xml:space="preserve" width="50in" height="56.0048in" version="1.1" style="shape-rendering:geometricPrecision; text-rendering:geometricPrecision; image-rendering:optimizeQuality; fill-rule:evenodd; clip-rule:evenodd"
viewBox="0 0 12927.7 14480.26"
 xmlns:xlink="http://www.w3.org/1999/xlink"
 xmlns:xodm="http://www.corel.com/coreldraw/odm/2003">
 <defs>
  <style type="text/css">
   <![CDATA[
    .fil0 {fill:#CCCCCC}
   ]]>
  </style>
 </defs>
 <g id="Layer_x0020_1">
  <metadata id="CorelCorpID_0Corel-Layer"/>
  <path class="fil0" d="M6464.58 12428.7c-79.17,-41.74 -326.54,-325.68 -404.41,-403.41 -139.35,-139.09 -257.87,-257.5 -397.2,-396.51l-3968.21 -3969.07c-280.97,-282.72 -595.31,-596 -1066.46,-457.62 -560.77,164.7 -921.51,918.48 -308.8,1464.44l1191.33 1189.78c1450.63,1450.63 2943,2919.78 4373.56,4384.86 302.18,309.48 823.14,322.97 1146.26,14.34l5745.39 -5763.06c49.58,-76.29 108.57,-187.65 131.19,-291.26 108.37,-496.6 -232.84,-863.72 -564.67,-985.19 -467.63,-171.17 -793.84,126.28 -1079.91,415.26l-4578.26 4577.94c-142.16,140.63 -114.68,164.06 -219.81,219.49z"/>
  <path class="fil0" d="M6464.58 5256.84c-92.49,-48.76 -1532.89,-1529.79 -1596.1,-1592.88l-3173.72 -3176.1c-78.83,-79.33 -114.26,-108.74 -205.37,-191.32 -811.34,-735.34 -1592.11,48.44 -1472.04,710.06 59.07,325.48 406.57,590.97 699.74,884.14 1711.85,1711.84 3481.23,3451.83 5167.28,5178.59 302.18,309.47 823.14,322.97 1146.26,14.33l5153.07 -5164.57c288.5,-288.5 651.84,-561.36 723.51,-889.75 147.7,-676.78 -576.09,-1268.75 -1212.1,-931.45 -133.36,70.74 -324.5,252.45 -432.48,361.52l-4578.26 4577.95c-40.07,39.64 -61.48,59.49 -96.41,101.19 -77.04,91.97 -22.42,65.05 -123.4,118.29z"/>
 </g>
</svg>
