<?xml version="1.0" encoding="UTF-8"?>
<!DOCTYPE svg PUBLIC "-//W3C//DTD SVG 1.1//EN" "http://www.w3.org/Graphics/SVG/1.1/DTD/svg11.dtd">
<!-- Creator: CorelDRAW (Evaluation Version) -->
<svg xmlns="http://www.w3.org/2000/svg" xml:space="preserve" width="50.072in" height="50in" version="1.1" style="shape-rendering:geometricPrecision; text-rendering:geometricPrecision; image-rendering:optimizeQuality; fill-rule:evenodd; clip-rule:evenodd"
viewBox="0 0 16459.32 16435.66"
 xmlns:xlink="http://www.w3.org/1999/xlink"
 xmlns:xodm="http://www.corel.com/coreldraw/odm/2003">
 <defs>
  <style type="text/css">
   <![CDATA[
    .fil0 {fill:#CBCBCB}
   ]]>
  </style>
 </defs>
 <g id="Layer_x0020_1">
  <metadata id="CorelCorpID_0Corel-Layer"/>
  <path class="fil0" d="M13582.59 16.97c-350.71,56.56 -580.95,179.91 -793.22,356.73l-5050.15 5034.47 3223.31 3381.74 4549.6 -4533.28c191.46,-190.68 381.81,-358.1 571.01,-589.14 359.15,-438.57 533.53,-1143.48 192.56,-1758.97 -160.2,-289.18 -857.91,-930.7 -1123.61,-1196.41 -264.84,-264.83 -265.95,-327.31 -634.15,-526.27 -264.95,-143.18 -600.87,-222.82 -935.37,-168.87zm-5842.86 5391.73l-6774.14 6753.12c-998.23,993.98 -948.41,972.34 -948.41,2532.45 0,628.42 -177.02,1567.81 605.82,1710.64 243.07,44.36 2035.89,38.66 2289.5,-3.84 556.25,-93.2 768.49,-355.87 1056.57,-642.77l6993.48 -6968.39 -3222.81 -3381.21zm5072.53 -2807.82c51.87,102.31 941.78,992.23 1044.1,1044.1 101.61,-51.51 966.81,-916.71 1018.32,-1018.32 -51.87,-102.31 -941.78,-992.23 -1044.1,-1044.1 -101.6,51.5 -966.81,916.71 -1018.31,1018.32z"/>
 </g>
</svg>
