<svg xmlns="http://www.w3.org/2000/svg" width="300px" height="300px" style="fill-rule:evenodd;" viewBox="0 0 9608.17 6057.01" fill="#cccccc" >
  <path d="M566.85 2994.17l0.05 3060.91 6589.32 1.92 -14.23 -4164.63c-1.61,2.69 -9.29,15.21 -11.26,18.94l-264.65 636.04c-47.38,111.36 -93.26,223.48 -139.72,337.5 -56.27,138.03 -68.04,107.18 -378.51,107.11l-4814.13 0c-309.55,0 -662.66,-15.74 -966.86,2.2zm159.54 -1625.51l1549.27 0.15 0.03 -1271.26c-58.67,31.82 -55.93,40.37 -101.96,75.98l-961.26 784.57c-84.38,72.29 -443.28,349.46 -486.08,410.56zm6609.11 104.45l538.41 1303.49 1082.7 -879.9c76.31,-62.33 140.64,-118.01 217.9,-177.45l323.09 -263.62c44.13,-36.27 69.25,-62.26 110.59,-94.54 -16.46,-95.23 -457.92,-1117.62 -533.64,-1306.85 -35.66,16 -74.6,52.73 -107.31,80.59l-764.19 626.67c-72.29,62.28 -144.33,115.94 -217.01,178.58l-650.53 533.03zm1912.94 -336.58c-32.02,19.3 -55.73,43.01 -84.43,67.38 -34.48,29.31 -51.15,32.18 -90.75,73.52 -79.54,83.07 -8.4,178.15 80.38,136.01 34.64,-16.46 141.18,-105.52 176,-139.31 93.23,-90.49 2.69,-188.13 -81.2,-137.6zm-282.16 331.74c-99.76,-52.15 -113.71,-12.16 -230.68,85.09l-502.59 410.66c-30.67,25.19 -74.01,73.29 -26.01,129.12 69.81,81.18 177.58,-45.36 222.36,-82.2l503.1 -411.25c45.8,-40.81 54.91,-59.44 33.82,-131.43zm-1651.57 4493.71c125.08,-85.45 312.36,-251.46 434.6,-349.15l856.25 -698.71c74.21,-62.9 137.24,-111.33 209.33,-172.49 57.06,-48.41 181.45,-132.66 209.63,-189.31l-0.26 -2495.24c-49.59,22.83 -99.63,76.54 -147.55,114.53l-878.03 717.63c-229.83,199.62 -196.58,135.68 -438.82,-449.24 -55.91,-135.04 -174.59,-468.42 -241.02,-571.38l-4.12 4093.36zm-4879.34 -4594.7c639.86,20.68 1309.89,1.02 1948.65,1.02l2794.4 0.18c69.43,-7.32 530.78,-410.74 616.97,-482.98 181.35,-151.98 357.57,-291.06 541.07,-440.9 95.61,-78.05 179.02,-143.13 270,-220.92 53.37,-45.62 234.64,-183.47 263.75,-223.43l-6432.34 -0.26 -2.48 1367.29zm-2435.37 1463.13l6566.05 0.82c24.88,-30.98 532.39,-1241.39 543.73,-1302.52l-6568.87 -0.13 -540.91 1301.83zm3433.97 2683.96c-79.84,-35.2 -210.53,-22.09 -318.28,-22.45 -51.05,-0.18 -125.05,-11.44 -168.67,10.06 -43.7,21.53 -58.44,87.83 -22.66,127.1 38.32,42.01 240.86,23.17 314.13,23.4 133.91,0.41 235.03,20.91 195.48,-138.11zm-2425.1 121.88c109.59,32.15 1568.57,31.36 1675.63,-1.08 57.93,-197.27 -147.68,-143.28 -318.89,-143.28l-1022.82 0c-170.36,0 -397.79,-56.47 -333.92,144.35z"/>
</svg>
