<svg xmlns="http://www.w3.org/2000/svg" width="24px" height="24px" viewBox="0 0 8522.85 5681.83" fill="#111111" >
  <path d="M513.68 0l1813.55 0c282.56,0 513.68,231.12 513.68,513.68l0 1813.55c0,282.56 231.12,513.68 513.68,513.68l1813.55 0c282.56,0 513.68,-231.12 513.68,-513.68l0 -1813.55c0,-282.56 231.22,-513.68 513.78,-513.68l1813.45 0c282.66,0 513.78,231.12 513.78,513.68l0 1813.55c0,282.56 -231.12,513.68 -513.78,513.68l-1813.45 0c-282.56,0 -513.78,231.12 -513.78,513.78l0 1813.45c0,282.56 -231.12,513.68 -513.68,513.68l-1813.55 0c-282.56,0 -513.68,-231.12 -513.68,-513.68l0 -1813.45c0,-282.66 -231.12,-513.78 -513.68,-513.78l-1813.55 0c-282.56,0 -513.68,-231.12 -513.68,-513.68l0 -1813.55c0,-282.56 231.12,-513.68 513.68,-513.68z"/>
</svg>
