<?xml version="1.0" encoding="UTF-8"?>
<!DOCTYPE svg PUBLIC "-//W3C//DTD SVG 1.1//EN" "http://www.w3.org/Graphics/SVG/1.1/DTD/svg11.dtd">
<!-- Creator: CorelDRAW (Evaluation Version) -->
<svg xmlns="http://www.w3.org/2000/svg" xml:space="preserve" width="50in" height="49.9966in" version="1.1" style="shape-rendering:geometricPrecision; text-rendering:geometricPrecision; image-rendering:optimizeQuality; fill-rule:evenodd; clip-rule:evenodd"
viewBox="0 0 3461.84 3461.6"
 xmlns:xlink="http://www.w3.org/1999/xlink"
 xmlns:xodm="http://www.corel.com/coreldraw/odm/2003">
 <defs>
  <style type="text/css">
   <![CDATA[
    .fil0 {fill:#CCCCCC}
   ]]>
  </style>
 </defs>
 <g id="Layer_x0020_1">
  <metadata id="CorelCorpID_0Corel-Layer"/>
  <path class="fil0" d="M271.99 1934.64c-16.54,-108.19 -17.37,-307.9 -0.38,-416.06 9.72,-61.87 30.56,-123.04 39.65,-177.3l692.43 0c-26.82,271.05 -31.83,500.88 -2.14,774.64l-691.22 0c-6.46,-40.31 -26.5,-103.88 -38.33,-181.28zm1044.23 -853.96c12.43,-68.2 47.9,-172.49 70.49,-239.23 25.95,-76.64 52.55,-150.54 85.46,-221.99 33.84,-73.48 71.12,-141.45 112.22,-199.32 29.28,-41.24 114.28,-146.93 152.18,-158.41 9.66,18.7 37.72,47.51 52.87,64.36l83.47 111.33c125.15,176.56 243.35,429.43 281.11,643.48l-837.8 -0.22zm884.76 -607.73c-29.26,-55.43 -87.49,-142.01 -100.92,-168.94 128.47,21.05 346.67,122.6 456.81,198.14 34.95,23.97 97.87,64.97 126.28,90.21l60.16 52.48c20.08,14.96 37.04,35.19 54.66,53.32 111.8,115.07 189.21,231.29 264.63,383.36l-648.88 0.04c-24.64,-164.19 -132.46,-456.52 -212.74,-608.62zm565.33 -141.22c-109.47,-78.34 -212.43,-136.64 -345.44,-195.5 -203.62,-90.11 -480.47,-142.58 -727.2,-135.62 -266.22,7.51 -489.24,59.85 -706.61,159.87 -116.26,53.5 -173.57,92.54 -273.64,159.05l-232.91 199.86c-41.5,47.73 -87.53,91.8 -124.66,143.75 -8.09,11.33 -15.47,21.6 -23.31,32.96 -223.08,323.4 -343.77,645.93 -331.73,1070.45 10.3,363.21 117.99,686.41 322.85,977.46 14.57,20.7 31.75,45.86 46.08,62.15l49.21 58.92c53.77,70.87 201.41,204.94 280.95,260.06 23.41,16.22 41.15,30.02 63.46,44.79 84.49,55.94 178.24,107.17 280.41,152.28 211.54,93.41 468.8,145.99 724.21,138.71 369.79,-10.54 690.99,-119.77 975.71,-323.37 64.09,-45.83 184.2,-143.01 233.6,-199.11l193.04 -239.87c189.28,-297.11 301.27,-629.25 290.82,-1006.27 -7.26,-262.07 -57.19,-492.45 -160.18,-705.13 -75.59,-156.09 -148.43,-272.32 -254.39,-394.75 -10.04,-11.61 -11.63,-18.11 -23.34,-28.7 -40.94,-37.04 -43.79,-51.54 -80.45,-83.81 -10.38,-9.14 -17.77,-14.77 -28.32,-23.84 -11.93,-10.27 -16.29,-18.05 -27.5,-28.58 -10.04,-9.43 -16.04,-11.71 -28.83,-23.17l-91.84 -72.59zm-1714.19 749.86l-653.16 -1.15c120.12,-229.6 236.29,-375.56 442.74,-533.11 126.27,-96.36 364.82,-214.01 515.49,-239.02 -11.91,25.19 -35.68,57.49 -51.45,84.26 -84.42,143.25 -156.7,312.37 -201.74,473.45 -17.44,62.36 -43.03,152.16 -51.88,215.57zm215.14 1034.32c-36.79,-413.12 -30.82,-371.94 0.45,-774.64l930.9 0c4.12,61.51 14.41,124.96 19.29,188.35 16.24,210.67 -0.65,379.91 -19.72,586.29l-930.92 0zm1190.61 0c37.81,-386.56 29.28,-397.22 3.76,-774.64l689.55 0c8.43,55.82 29.71,117.27 39.35,181.1 16.46,109.05 15.41,307.17 -1.56,415.99 -4.85,31.05 -10.1,60.7 -16.3,91.4 -5.91,29.26 -17.05,58.7 -20.22,86.15l-694.59 0zm-2058.89 259.76l648.83 -0.05c24.57,169.3 132.28,455.89 214.21,611.49l99.36 170.29c-169.36,-44.83 -472.49,-196.24 -606.43,-320.86l-136.77 -136.09c-78.48,-83.5 -162.99,-223.69 -219.2,-324.8zm917.21 0.62l833.5 0.2c-11.12,70.45 -45.83,179.89 -69.16,244.91 -63.9,178.11 -104.7,261.39 -206.42,416.84 -16.13,24.66 -125.1,159.31 -143.33,170.26 -21.55,-13.72 -122.89,-146.45 -140.74,-172.73 -115.22,-169.58 -240.23,-455.17 -273.84,-659.47zm889.12 603.61c71.12,-139.82 191.38,-453.14 212.75,-604.3l644.5 1.19 -82.43 135.9c-25.84,41.82 -107.13,146.3 -143.42,181.22 -55.34,53.24 -106.11,109.54 -166.97,157.54 -150.56,118.72 -386.94,258.19 -565.24,301.64 14.18,-29.36 70.32,-113.24 100.81,-173.18z"/>
 </g>
</svg>
