<?xml version="1.0" encoding="UTF-8"?>
<!DOCTYPE svg PUBLIC "-//W3C//DTD SVG 1.1//EN" "http://www.w3.org/Graphics/SVG/1.1/DTD/svg11.dtd">
<!-- Creator: CorelDRAW (Evaluation Version) -->
<svg xmlns="http://www.w3.org/2000/svg" xml:space="preserve" width="50in" height="44.882in" version="1.1" style="shape-rendering:geometricPrecision; text-rendering:geometricPrecision; image-rendering:optimizeQuality; fill-rule:evenodd; clip-rule:evenodd"
viewBox="0 0 5215.89 4681.99"
 xmlns:xlink="http://www.w3.org/1999/xlink"
 xmlns:xodm="http://www.corel.com/coreldraw/odm/2003">
 <defs>
  <style type="text/css">
   <![CDATA[
    .fil0 {fill:#CBCBCB}
   ]]>
  </style>
 </defs>
 <g id="Layer_x0020_1">
  <metadata id="CorelCorpID_0Corel-Layer"/>
  <path class="fil0" d="M801.53 941.91l-288.12 300.78c-147.21,193.8 -196.5,255.07 -339.28,488.34 -170.41,278.41 -254.4,376.02 -70.09,672.62 122.82,197.65 163.86,256.5 291.39,421.44l349.04 363.91c24.31,20.11 30.86,34.92 58.69,55.99 67.81,51.34 122.46,103.73 199,157.36 305.68,214.18 567.48,368.59 965.49,459.9 280.51,64.36 565.13,91.16 864.82,67.03 147.46,-11.88 271.78,-31.03 412.32,-58.38 70.82,-13.78 319.8,-79.4 366.45,-107.29 21.65,9.66 180.23,166.91 210.71,195.8 70.32,66.65 134.53,138.63 205.58,205.17 67.17,62.91 146.57,130.68 207.55,203.23l209.4 201.48c26.39,25.23 67.71,73.93 106.05,93.09 179.99,89.95 328.85,-151.57 207.35,-279.78 -18.86,-19.9 -34.45,-31.41 -52.42,-50.19l-356.4 -362.46c-547.16,-547.18 -1090.29,-1089.52 -1637.46,-1636.69 -547.17,-547.17 -1090.14,-1089.67 -1636.84,-1637.32 -137.27,-137.51 -270.22,-270.51 -407.61,-407.9 -35.71,-35.71 -66.99,-66.99 -102.66,-102.73 -18.56,-18.6 -32.77,-32.75 -51.32,-51.37l-105.71 -99.71c-130.32,-89.11 -294.64,7.73 -290.79,152.56 1.71,64.52 34.23,100.61 67.59,137.12 93.33,102.14 299.89,299.57 410.78,410.79 35.64,35.75 66.87,67.09 102.53,102.86l75.34 75.58c5.6,5.29 7.54,6.46 12.76,11.4l6.51 6.26c8.23,8.63 1.88,-0.16 9.36,11.11zm2144.57 2148.98l-1306.83 -1305.25c-31.59,57.81 -54.57,215.66 -59.07,295.76 -11.58,206.13 52.35,467.99 172.3,625.07l82.57 98.4c43.11,43.35 10.98,23.46 87.27,88.33l98.58 82.4c158.9,123.87 416.49,183.2 626.35,175.82 88.45,-3.11 235.17,-20.53 298.83,-60.52z"/>
  <path class="fil0" d="M2524.74 315.97c-262.22,5.66 -500.06,44.74 -736.08,111.82 -184.4,52.41 -196.29,227.04 -134.77,323.34 18.51,28.98 331.25,345.37 363.82,379.25 107.35,111.67 169.3,43.59 308.89,4.66 278.84,-77.77 642.05,-21.93 855.35,135.94l87.97 69.11c39.58,42.06 54.33,43.12 80.84,75.89l95.7 115.94c179.1,224.19 238.17,632.41 130.69,931.92 -20.17,56.22 -49.97,102.32 -31.4,170.69 12.15,44.74 47.83,66.43 96.54,115.14 61.54,61.54 498.17,504.82 533.22,530.05 43.29,31.16 101.27,50.7 165.53,38.67 99.74,-18.67 239.65,-187.95 317.21,-262.41l120.97 -144.99c32.36,-43.12 56.92,-75.97 89.04,-122.54 89.12,-129.2 254.2,-383.32 320.52,-525 94.35,-201.57 -79.03,-416.62 -192.93,-601.52 -48.88,-79.35 -125.7,-173.43 -182.51,-246.35 -238.99,-306.75 -582.76,-587.01 -918.02,-779.57 -386.12,-221.78 -860.28,-331.05 -1370.59,-320.03z"/>
  <path class="fil0" d="M2540.08 1453.61c-31.31,4.11 -64.26,4.26 -83.41,22.83 -16.77,16.26 -27.01,47.14 -13.07,73.46l740.42 739.99c117.16,54.11 92.07,-232.94 76.82,-300.59 -23.85,-105.83 -54.03,-172.72 -112.04,-256.28 -72.07,-103.81 -138.69,-155.71 -259.02,-218.47 -89.12,-46.48 -240,-75.34 -349.71,-60.95z"/>
 </g>
</svg>
