<?xml version="1.0" encoding="UTF-8"?>
<!DOCTYPE svg PUBLIC "-//W3C//DTD SVG 1.1//EN" "http://www.w3.org/Graphics/SVG/1.1/DTD/svg11.dtd">
<!-- Creator: CorelDRAW (Evaluation Version) -->
<svg xmlns="http://www.w3.org/2000/svg" xml:space="preserve" width="49.9757in" height="50in" version="1.1" style="shape-rendering:geometricPrecision; text-rendering:geometricPrecision; image-rendering:optimizeQuality; fill-rule:evenodd; clip-rule:evenodd"
viewBox="0 0 2267.69 2268.79"
 xmlns:xlink="http://www.w3.org/1999/xlink"
 xmlns:xodm="http://www.corel.com/coreldraw/odm/2003">
 <defs>
  <style type="text/css">
   <![CDATA[
    .fil0 {fill:#CCCCCC}
   ]]>
  </style>
 </defs>
 <g id="Layer_x0020_1">
  <metadata id="CorelCorpID_0Corel-Layer"/>
  <path class="fil0" d="M173.82 4.08c-28.95,2.52 -55.63,11.48 -78.98,25.94 -10.06,6.22 -12.96,9.45 -21.44,16.19 -25.87,20.58 -47.7,48.71 -60.02,81.53 -19.62,52.26 -11.87,204.89 -11.87,271.05l0 1556.17c0,142.62 -16.4,189.35 78.71,273.4 62.52,55.25 217.33,37.83 317.41,37.83 518.72,0 1037.45,0 1556.17,0 103.19,0 167.79,14.84 239.04,-43.78 19.23,-15.82 18.54,-15.93 34.47,-34.83 55.3,-65.63 37.72,-213.67 37.72,-317.5l0 -1556.17c0,-130.33 17.16,-192.8 -78.62,-273.52 -65.65,-55.33 -213.8,-37.72 -317.5,-37.72 -471.57,0 -943.13,0 -1414.7,0 -86.61,0 -196.97,-5.85 -280.39,1.41zm16.32 1457.3l452.7 0c146.72,0 124.02,47.99 197.65,129.33 126.42,139.68 348.11,177.75 506.83,65.9 51.04,-35.97 82.67,-63.59 118.38,-117.48 6.66,-10.05 11.6,-17.37 19.16,-27.94 32.17,-44.93 76.89,-49.81 138.84,-49.81l452.7 0 0 -1270.09 -1886.27 0 0 1270.09z"/>
 </g>
</svg>
