<?xml version="1.0" encoding="UTF-8"?>
<!DOCTYPE svg PUBLIC "-//W3C//DTD SVG 1.1//EN" "http://www.w3.org/Graphics/SVG/1.1/DTD/svg11.dtd">
<!-- Creator: CorelDRAW (Evaluation Version) -->
<svg xmlns="http://www.w3.org/2000/svg" xml:space="preserve" width="50in" height="87.918in" version="1.1" style="shape-rendering:geometricPrecision; text-rendering:geometricPrecision; image-rendering:optimizeQuality; fill-rule:evenodd; clip-rule:evenodd"
viewBox="0 0 1325.94 2331.47"
 xmlns:xlink="http://www.w3.org/1999/xlink"
 xmlns:xodm="http://www.corel.com/coreldraw/odm/2003">
 <defs>
  <style type="text/css">
   <![CDATA[
    .fil0 {fill:#CCCCCC}
   ]]>
  </style>
 </defs>
 <g id="Layer_x0020_1">
  <metadata id="CorelCorpID_0Corel-Layer"/>
  <path class="fil0" d="M379.41 1168.58c8.77,-16.64 275.21,-275.77 286.56,-287.14 191.34,-191.69 427.13,-419.3 608.24,-610.53 158.89,-167.77 -86.66,-370.6 -220.73,-215.66l-213.85 214.5c-97.29,97.29 -190.84,190.84 -288.13,288.13l-430.92 430.92c-57,57 -116.48,97.43 -120.31,169.67 -4.63,87.28 50.73,120.3 107.56,177.13 305.89,305.89 630.32,623.44 930.74,930.64 25.28,25.85 40.25,47.89 87.54,60.02 135.33,34.72 234.43,-112.25 183.16,-213.43 -21.34,-42.11 -307.18,-317.26 -354.42,-364.64 -97.13,-97.43 -190.95,-190.74 -288.32,-287.95 -28.11,-28.07 -273.41,-264.59 -287.13,-291.67z"/>
 </g>
</svg>
