<?xml version="1.0" encoding="UTF-8"?>
<!DOCTYPE svg PUBLIC "-//W3C//DTD SVG 1.1//EN" "http://www.w3.org/Graphics/SVG/1.1/DTD/svg11.dtd">
<!-- Creator: CorelDRAW (Evaluation Version) -->
<svg xmlns="http://www.w3.org/2000/svg" xml:space="preserve" width="50in" height="50in" version="1.1" style="shape-rendering:geometricPrecision; text-rendering:geometricPrecision; image-rendering:optimizeQuality; fill-rule:evenodd; clip-rule:evenodd"
viewBox="0 0 23224.65 23224.65"
 xmlns:xlink="http://www.w3.org/1999/xlink"
 xmlns:xodm="http://www.corel.com/coreldraw/odm/2003">
 <defs>
  <style type="text/css">
   <![CDATA[
    .fil0 {fill:#99CC66}
   ]]>
  </style>
 </defs>
 <g id="PowerClip_x0020_Contents">
  <metadata id="CorelCorpID_0Corel-Layer"/>
  <path class="fil0" d="M4550.47 2923.15l3462.69 0 2448.48 -2448.48c632.88,-632.89 1668.49,-632.89 2301.37,0l2448.48 2448.48 3462.69 0c895.03,0 1627.32,732.29 1627.32,1627.32l0 3462.69 2448.48 2448.48c632.89,632.88 632.89,1668.49 0,2301.37l-2448.48 2448.48 0 3462.69c0,895.03 -732.29,1627.32 -1627.32,1627.32l-3462.69 0 -2448.48 2448.48c-632.88,632.89 -1668.49,632.89 -2301.37,0l-2448.48 -2448.48 -3462.69 0c-895.03,0 -1627.32,-732.29 -1627.32,-1627.32l0 -3462.69 -2448.48 -2448.48c-632.89,-632.88 -632.89,-1668.49 0,-2301.37l2448.48 -2448.48 0 -3462.69c0,-895.03 732.29,-1627.32 1627.32,-1627.32z"/>
 </g>
</svg>
