<?xml version="1.0" encoding="UTF-8"?>
<!DOCTYPE svg PUBLIC "-//W3C//DTD SVG 1.1//EN" "http://www.w3.org/Graphics/SVG/1.1/DTD/svg11.dtd">
<!-- Creator: CorelDRAW (Evaluation Version) -->
<svg xmlns="http://www.w3.org/2000/svg" xml:space="preserve" width="50in" height="69.6626in" version="1.1" style="shape-rendering:geometricPrecision; text-rendering:geometricPrecision; image-rendering:optimizeQuality; fill-rule:evenodd; clip-rule:evenodd"
viewBox="0 0 1752.49 2441.66"
 xmlns:xlink="http://www.w3.org/1999/xlink"
 xmlns:xodm="http://www.corel.com/coreldraw/odm/2003">
 <defs>
  <style type="text/css">
   <![CDATA[
    .fil0 {fill:#1A1A1A}
   ]]>
  </style>
 </defs>
 <g id="PowerClip_x0020_Contents">
  <metadata id="CorelCorpID_0Corel-Layer"/>
  <path class="fil0" d="M876.25 1452.3c-55.22,0 -99.98,44.76 -99.98,99.98l0 268.32c0,55.22 44.76,99.98 99.98,99.98 55.22,0 99.98,-44.76 99.98,-99.98l0 -268.32c0,-55.23 -44.76,-99.98 -99.98,-99.98zm-479.23 989.36l958.47 0c218.45,0 397.01,-178.56 397.01,-397.01l0 -725.17c0,-181.48 -123.09,-335.22 -289.97,-382.41l0 -351.27c0,-160.8 -66.17,-307.25 -172.72,-413.8 -106.31,-105.82 -252.76,-171.99 -413.55,-171.99 -161.04,0 -307.49,66.17 -413.55,172.23 -106.3,106.31 -172.72,252.76 -172.72,413.55l0 351.27c-166.88,46.71 -289.97,200.45 -289.97,382.41l0 725.17c0,218.45 178.56,397.01 397.01,397.01zm800.59 -1519.44l-642.7 0 0 -336.43c0,-88.31 36,-168.58 93.9,-226.48 58.38,-58.14 138.9,-94.38 227.45,-94.38 88.55,0 169.07,36.24 227.21,94.38 58.14,57.9 94.14,138.18 94.14,226.48l0 336.43zm-729.8 1343.32l816.89 0c145.47,0 264.43,-119.2 264.43,-264.92l0 -637.36c0,-145.72 -118.96,-264.67 -264.43,-264.67l-816.89 0c-145.47,0 -264.43,118.96 -264.43,264.67l0 637.36c0,145.72 118.96,264.92 264.43,264.92z"/>
 </g>
</svg>
