<?xml version="1.0" encoding="UTF-8"?>
<!DOCTYPE svg PUBLIC "-//W3C//DTD SVG 1.1//EN" "http://www.w3.org/Graphics/SVG/1.1/DTD/svg11.dtd">
<!-- Creator: CorelDRAW (Evaluation Version) -->
<svg xmlns="http://www.w3.org/2000/svg" xml:space="preserve" width="50in" height="50.9089in" version="1.1" style="shape-rendering:geometricPrecision; text-rendering:geometricPrecision; image-rendering:optimizeQuality; fill-rule:evenodd; clip-rule:evenodd"
viewBox="0 0 4927.75 5017.32"
 xmlns:xlink="http://www.w3.org/1999/xlink"
 xmlns:xodm="http://www.corel.com/coreldraw/odm/2003">
 <defs>
  <style type="text/css">
   <![CDATA[
    .fil0 {fill:#CCCCCC}
   ]]>
  </style>
 </defs>
 <g id="Layer_x0020_1">
  <metadata id="CorelCorpID_0Corel-Layer"/>
  <path class="fil0" d="M4508.79 4596.9l0 -4173.97c-310.73,0 -621.46,0 -932.19,0 -306.04,0 -636.48,11.98 -939.46,-0.38 -240.83,-9.82 -270.59,-295.85 -104.28,-389.43 62.66,-35.26 130.76,-27.6 208.94,-27.6l1405.24 0c233.32,0 451.3,-38.43 608,87.4 29.09,23.36 39.15,24.49 62.33,56.13 15.99,21.82 34.92,41.33 51.01,67.24 73.84,118.88 57.79,263.43 57.79,415.33l0 3749.62c0,148 15.68,295.89 -52.55,413.58 -49.9,86.07 -143.03,174.81 -266.55,205.89 -103.95,26.16 -768.49,13.58 -926.13,13.58 -310.73,0 -621.46,-0.01 -932.19,0 -67.84,0 -153.47,6.84 -208.06,-21.47 -180.13,-93.4 -138.36,-382.53 89.45,-395.28 146.88,-8.23 317.01,-0.65 466.44,-0.65 470.73,0 941.46,0 1412.19,0z"/>
  <path class="fil0" d="M734.84 2301.21l2048.71 0c79.73,0 265.25,-9.01 330.02,10.86 81.32,24.95 145.17,99.9 142.27,204.84 -2.65,95.99 -69.89,170.74 -147.26,192.87 -65.41,18.71 -906.85,8.82 -1013.73,8.82 -457.97,0 -915.94,0 -1373.91,0 18.53,36.36 454.93,461.29 495.84,502.43 36.91,37.13 89.06,73.62 109.89,140.41 42.59,136.58 -57.12,274.49 -205.69,278.28 -93.59,2.39 -124.05,-46.76 -165.2,-88.12l-751.39 -751.25c-50.4,-50.4 -157.56,-147.2 -181.46,-194.29 -81.23,-159.99 70.49,-261.74 191.9,-383.15l751.4 -751.24c26.86,-27.48 26.64,-36.94 65.84,-59.42 96.69,-55.45 214.8,-24.69 269.09,47.8 114.63,153.09 25.09,250 -63.88,338.32 -85.5,84.87 -165.76,164.76 -250.79,250.11 -82.61,82.92 -172.35,164.15 -251.62,252.71z"/>
 </g>
</svg>
