<?xml version="1.0" encoding="UTF-8"?>
<!DOCTYPE svg PUBLIC "-//W3C//DTD SVG 1.1//EN" "http://www.w3.org/Graphics/SVG/1.1/DTD/svg11.dtd">
<!-- Creator: CorelDRAW (Evaluation Version) -->
<svg xmlns="http://www.w3.org/2000/svg" xml:space="preserve" width="58.2418in" height="50in" version="1.1" style="shape-rendering:geometricPrecision; text-rendering:geometricPrecision; image-rendering:optimizeQuality; fill-rule:evenodd; clip-rule:evenodd"
viewBox="0 0 52682.49 45227.4"
 xmlns:xlink="http://www.w3.org/1999/xlink"
 xmlns:xodm="http://www.corel.com/coreldraw/odm/2003">
 <defs>
  <style type="text/css">
   <![CDATA[
    .fil0 {fill:#CBCBCB}
   ]]>
  </style>
 </defs>
 <g id="Layer_x0020_1">
  <metadata id="CorelCorpID_0Corel-Layer"/>
  <path class="fil0" d="M52639.89 14479.69l0 15639.86c0,2742.33 445.08,5309.1 -1950.77,6788.9 -208.45,128.76 -327.37,187.94 -569.92,285.88 -916.55,370.02 -1905.17,285.64 -2933.99,285.64l-35157.56 0c-1793.7,0 -1391.5,-86.9 -2347.56,872.1 -1076.75,1080.05 -2105.33,2112.09 -3182.39,3191.98l-3219.37 3220.24c-693.93,504.74 -1448.43,673.92 -2327.05,113.33 -839.02,-535.33 -885.16,-1101.08 -884.14,-2337.93l0.02 -28060.02 0.02 0 0 -5716.89c0,-2417.44 -422.98,-5724.08 854.01,-7161.82 564.09,-635.1 -0.76,-123.99 789.38,-790.25 586.28,-494.37 1447.61,-768.42 2430.89,-788.02 2107.6,-41.99 4261.9,-0.35 6374.75,-0.35 11741.09,0 23482.19,0 35223.28,0 998.1,0 2224.56,-61.1 3188.46,18.68 1093.61,90.53 1524.86,364.72 2239.69,925.75 505.04,396.38 1060.06,1029.28 1302.65,1916.77 339.72,1242.87 169.61,4708.48 169.61,6207.79l0 5388.33z"/>
 </g>
</svg>
