<?xml version="1.0" encoding="UTF-8"?>
<!DOCTYPE svg PUBLIC "-//W3C//DTD SVG 1.1//EN" "http://www.w3.org/Graphics/SVG/1.1/DTD/svg11.dtd">
<!-- Creator: CorelDRAW (Evaluation Version) -->
<svg xmlns="http://www.w3.org/2000/svg" xml:space="preserve" width="50in" height="50in" version="1.1" style="shape-rendering:geometricPrecision; text-rendering:geometricPrecision; image-rendering:optimizeQuality; fill-rule:evenodd; clip-rule:evenodd"
viewBox="0 0 7868.36 7868.36"
 xmlns:xlink="http://www.w3.org/1999/xlink"
 xmlns:xodm="http://www.corel.com/coreldraw/odm/2003">
 <defs>
  <style type="text/css">
   <![CDATA[
    .fil0 {fill:#CCCCCC}
   ]]>
  </style>
 </defs>
 <g id="Layer_x0020_1">
  <metadata id="CorelCorpID_0Corel-Layer"/>
  <path class="fil0" d="M3796.45 3.02c-630.5,23.98 -1069.85,154.69 -1581.19,391.72 -99.82,46.27 -238.89,119.12 -319.64,172.54l-570.02 414.06 -476.76 507.19c-174.96,196.63 -451.12,688.24 -548.14,927.97 -209.03,516.49 -320.65,1042.59 -297.76,1659.39 23.22,625.55 156.82,1070 391.78,1576.9 118.81,256.3 220.36,397.45 369.88,614.12 17.29,25.06 28.91,40.77 48.99,69.08l227.92 263.93c80.27,86.14 66.62,89.71 183.12,191.2l127.49 118.34c145.24,111.13 255.28,212.42 421.8,316.24 715.73,446.28 1397.94,666.01 2302.74,640.7 597.69,-16.72 1097.01,-163.13 1577.91,-391.48 132.27,-62.81 342.84,-184.82 469.3,-268.52 50.72,-33.57 91.06,-64.95 144.28,-101.84 212.45,-147.29 408.19,-335.79 578.28,-524.04 22,-24.35 42.51,-37.73 63.02,-64.59 86.52,-113.3 126.98,-150.29 215.24,-276.96 511.57,-734.19 768.48,-1491.66 741.79,-2443.82 -21.18,-755.38 -264.49,-1453.25 -660.08,-2050.95 -33.57,-50.72 -64.95,-91.06 -101.84,-144.28 -35.81,-51.64 -69.69,-94.04 -106.9,-139.1 -20.43,-24.74 -34.17,-42.98 -52.81,-65.32 -65.93,-78.99 -240.11,-266.32 -302.22,-317.68l-193.64 -170.54c-12.72,-10.48 -18.15,-17.52 -30.87,-28 -16.13,-13.29 -23.13,-16.69 -38.58,-30.44l-287.5 -204.62c-141.31,-86.91 -149.17,-98.66 -309.62,-182.43 -104.16,-54.39 -219.97,-116.22 -330.84,-161.09 -513.38,-207.77 -1042.01,-321.01 -1655.11,-297.69zm-1491.41 4790.03c-196.27,22.2 -262.27,216.22 -159.06,358.11 135.4,186.14 129.16,184.58 282.37,337.72 182.63,182.54 440.54,361.08 764.43,475.38 343.84,121.34 706.59,149.11 1087.73,97.16 401.82,-54.76 702.3,-215.11 981.95,-415.16 94.01,-67.25 170.82,-147.86 246.5,-226.05 50.61,-52.3 241.46,-272.45 257.85,-364.66 17.17,-96.56 -30.74,-177.78 -87.38,-219.78 -69.39,-51.46 -171.84,-45.63 -269.31,-45.61 -328.34,0.09 -2972.57,-12.1 -3105.08,2.88zm3023.28 -2439.51c-181.73,16.25 -272.02,85.1 -356.42,178.42 -303.58,335.66 -53.03,919.32 443.48,877.15 381.51,-32.41 601.47,-434.88 423.92,-780.02 -88.09,-171.25 -288.41,-295.44 -510.98,-275.54zm-2873.46 0c-191.95,17.16 -339.87,123.87 -412.14,249.99 -270.68,472.39 222.75,995.01 706.58,746.11 252.35,-129.82 351.48,-458.24 216.54,-720.56 -37.11,-72.14 -74.3,-101.96 -118.78,-147.36 -81.2,-82.87 -236,-142.15 -392.2,-128.18z"/>
 </g>
</svg>
