<?xml version="1.0" encoding="UTF-8"?>
<!DOCTYPE svg PUBLIC "-//W3C//DTD SVG 1.1//EN" "http://www.w3.org/Graphics/SVG/1.1/DTD/svg11.dtd">
<!-- Creator: CorelDRAW (Evaluation Version) -->
<svg xmlns="http://www.w3.org/2000/svg" xml:space="preserve" width="50.0094in" height="50in" version="1.1" style="shape-rendering:geometricPrecision; text-rendering:geometricPrecision; image-rendering:optimizeQuality; fill-rule:evenodd; clip-rule:evenodd"
viewBox="0 0 23282.44 23278.04"
 xmlns:xlink="http://www.w3.org/1999/xlink"
 xmlns:xodm="http://www.corel.com/coreldraw/odm/2003">
 <defs>
  <style type="text/css">
   <![CDATA[
    .fil0 {fill:#CBCBCB}
   ]]>
  </style>
 </defs>
 <g id="Layer_x0020_1">
  <metadata id="CorelCorpID_0Corel-Layer"/>
  <path class="fil0" d="M6069.76 3539.77l16110.28 16130.61c306.2,307.1 841.91,737.05 1026.2,1292.68 222.36,670.45 -81.08,1353.11 -407.5,1714.38 -297.1,328.8 -926.58,728.3 -1650.1,561.34 -660.68,-152.45 -1016.61,-619.95 -1354.94,-959.08l-15586.99 -15628.72c-163.89,-164.42 -417.83,-476.3 -623.05,-569.35l0 13088.07c0,840.14 116.54,1659.18 -298.47,2320.99 -781.15,1245.71 -2833.87,963.75 -3210.88,-539.33 -119.99,-478.33 -58.59,-4366.74 -58.59,-5170.79l0 -13155.2c0,-827.43 -79.04,-1500.64 519.93,-2122.68 555.89,-577.32 1354.21,-486.28 2122.48,-486.28l15786.22 0c573.52,0 2145.25,-64.83 2590.46,63.18 1455.08,418.36 1716.93,2361.08 511.17,3151.41 -663.35,434.79 -1467.63,308.76 -2343.54,308.76 -4377.55,0 -8755.1,0 -13132.67,0z"/>
 </g>
</svg>
