<?xml version="1.0" encoding="UTF-8"?>
<!DOCTYPE svg PUBLIC "-//W3C//DTD SVG 1.1//EN" "http://www.w3.org/Graphics/SVG/1.1/DTD/svg11.dtd">
<!-- Creator: CorelDRAW (Evaluation Version) -->
<svg xmlns="http://www.w3.org/2000/svg" xml:space="preserve" width="50in" height="50in" version="1.1" style="shape-rendering:geometricPrecision; text-rendering:geometricPrecision; image-rendering:optimizeQuality; fill-rule:evenodd; clip-rule:evenodd"
viewBox="0 0 11590.46 11590.46"
 xmlns:xlink="http://www.w3.org/1999/xlink"
 xmlns:xodm="http://www.corel.com/coreldraw/odm/2003">
 <defs>
  <style type="text/css">
   <![CDATA[
    .fil0 {fill:#99CC66}
   ]]>
  </style>
 </defs>
 <g id="PowerClip_x0020_Contents">
  <metadata id="CorelCorpID_0Corel-Layer"/>
  <path class="fil0" d="M2270.95 1458.82l1728.08 0 1221.94 -1221.94c315.84,-315.85 832.67,-315.85 1148.52,0l1221.94 1221.94 1728.08 0c446.67,0 812.13,365.45 812.13,812.13l0 1728.08 1221.94 1221.94c315.85,315.84 315.85,832.67 0,1148.52l-1221.94 1221.94 0 1728.08c0,446.67 -365.45,812.13 -812.13,812.13l-1728.08 0 -1221.94 1221.94c-315.84,315.85 -832.67,315.85 -1148.52,0l-1221.94 -1221.94 -1728.08 0c-446.67,0 -812.13,-365.45 -812.13,-812.13l0 -1728.08 -1221.94 -1221.94c-315.85,-315.84 -315.85,-832.67 0,-1148.52l1221.94 -1221.94 0 -1728.08c0,-446.67 365.45,-812.13 812.13,-812.13zm2796.24 3542.01c-309.32,19.42 -628.02,54.05 -937.34,81.58 -153.73,13.68 -323.22,21.2 -473.91,41.99 -198.81,27.43 -220.97,230.09 -113.95,334.04l68.55 61.28c15.15,12.93 18.33,14.29 34.87,30.35 48.31,46.88 140.85,117.26 204.71,178.65l207.92 181.98c12.76,11.5 20.52,14.4 33.02,25.94l376.57 331.5c14.93,13 22.06,14.61 36.22,28.99l103.65 91.69c7.37,17.84 -249.21,1095.81 -289.1,1269.4 -15.91,69.25 -46.79,154.26 -16.56,225.25 22.58,53.04 79.46,109.01 147.01,119.88 87.66,14.11 139.88,-27.77 197.41,-62.52 171.07,-103.32 1133.14,-687.82 1147.72,-687.84 14.7,-0.02 969.01,579.66 1139.7,682.84 57.23,34.6 112.91,79.23 199.34,68.39 72.47,-9.09 124.19,-60.76 149,-111.91 35.52,-73.21 7.34,-148.79 -10.03,-223.45 -33.05,-142.11 -64.52,-286.51 -98.61,-427.4 -24.57,-101.51 -197.09,-817.27 -192.92,-852.59l442.1 -383.95c15.14,-13.53 16.84,-18.59 33.45,-31.36l479.5 -417.56c64.58,-62.69 234.09,-154.51 156.52,-325.33 -26.35,-58.02 -74.63,-93.84 -154.84,-105.7 -146.83,-21.72 -321.97,-28.7 -472.78,-42.04 -310.94,-27.51 -633.03,-63.53 -943.67,-82.07 -16.3,-53.93 -53.9,-133.37 -77.43,-188.32l-396.12 -942.69c-55.58,-133.95 -85.28,-285.37 -253.21,-285.5 -166.65,-0.13 -196.14,147.29 -251.1,281.15 -52.54,127.97 -454.45,1065.42 -475.65,1135.36z"/>
 </g>
</svg>
