<?xml version="1.0" encoding="UTF-8"?>
<!DOCTYPE svg PUBLIC "-//W3C//DTD SVG 1.1//EN" "http://www.w3.org/Graphics/SVG/1.1/DTD/svg11.dtd">
<!-- Creator: CorelDRAW (Evaluation Version) -->
<svg xmlns="http://www.w3.org/2000/svg" xml:space="preserve" width="50in" height="49.9905in" version="1.1" style="shape-rendering:geometricPrecision; text-rendering:geometricPrecision; image-rendering:optimizeQuality; fill-rule:evenodd; clip-rule:evenodd"
viewBox="0 0 841.02 840.86"
 xmlns:xlink="http://www.w3.org/1999/xlink"
 xmlns:xodm="http://www.corel.com/coreldraw/odm/2003">
 <defs>
  <style type="text/css">
   <![CDATA[
    .fil0 {fill:#CCCCCC}
   ]]>
  </style>
 </defs>
 <g id="Layer_x0020_1">
  <metadata id="CorelCorpID_0Corel-Layer"/>
  <path class="fil0" d="M64.46 1.35c-10.74,0.93 -20.63,4.26 -29.29,9.62 -3.73,2.31 -4.81,3.5 -7.95,6 -9.6,7.63 -17.69,18.07 -22.26,30.23 -7.27,19.37 -4.4,75.98 -4.4,100.53l0 577.14c0,16.19 -1.03,36.15 0.48,51.9 2.56,26.66 21.8,50.08 45.9,59.12 19.37,7.27 75.98,4.4 100.53,4.4 192.38,0 384.76,0 577.14,0 16.24,0 36.09,1.02 51.9,-0.48 10.5,-1 20.42,-4.41 28.92,-9.66 3.97,-2.45 4.6,-3.44 7.84,-6.1 7.13,-5.87 6.88,-5.91 12.79,-12.92 20.52,-24.35 13.99,-79.29 13.99,-117.75l0 -577.14c0,-16.07 1.03,-36.17 -0.46,-51.64 -0.73,-7.64 -2.63,-14.42 -5.3,-20.72 -6.91,-16.35 -23.57,-32.31 -40.63,-38.66 -19.56,-7.28 -75.87,-4.4 -100.52,-4.4 -174.89,0 -349.78,0 -524.67,0 -32.12,0 -73.05,-2.17 -103.99,0.52zm109.18 185.34c7.53,-11.68 18.65,-19.24 34.38,-23.1 15.78,-3.87 30.21,-0.88 41.86,6.09 12.96,7.75 22.26,20.62 25.93,34.35 3.06,11.49 2.54,39.68 2.18,59.14 -0.05,2.79 -0.1,5.37 -0.1,12.82l-0.09 0 0.01 339.29c0.01,7.04 -0.04,12.94 -1.2,19.06 -1.47,7.81 -4.33,14.78 -9.89,21.85 -9.23,11.74 -20.39,18.57 -31.96,21.53 -8.86,2.27 -17.91,2.12 -26.48,0.07 -8.37,-2 -16.1,-5.79 -22.57,-10.88 -9.54,-7.5 -16.77,-17.96 -19.83,-29.94 -2.93,-11.47 -2.4,-39.16 -2.03,-58.63 0.05,-2.97 0.11,-5.34 0.11,-13.2l0.09 0 -0.01 -339.29c-0.02,-15.8 2.86,-28.68 9.61,-39.16zm195.89 6.57c6.54,-14.8 17.84,-24.76 37.87,-29.68 3.63,-0.89 7.24,-1.42 10.77,-1.62 14.45,-0.8 27.37,3.94 37.49,12.14 9.74,7.9 16.74,19.04 19.78,31.42 0.87,3.53 1.42,7.18 1.63,10.9 0.93,16.82 0.64,35.67 0.36,53.99 -0.08,5.5 -0.17,10.95 -0.17,24.22l0 78.12c0,8.96 -0.07,2.43 -0.05,4.57 0.15,13.57 0.32,28.25 -7.84,41.15 -8.07,12.76 -19.28,20.89 -31.41,24.84 -10.5,3.42 -21.58,3.67 -31.87,1.06 -10.36,-2.63 -20.02,-8.21 -27.59,-16.41 -8.48,-9.19 -14.16,-21.51 -14.98,-36.45 -0.93,-16.85 -0.64,-35.68 -0.36,-54 0.08,-5.47 0.17,-11.03 0.17,-24.21l0 -78.12c0,-16.3 0.86,-29.84 6.21,-41.92zm192.75 58.24c-1.59,-40.76 -2.97,-76.27 44.49,-87.92 12.99,-3.19 25.07,-1.47 35.31,2.96 12.24,5.29 21.8,14.64 27.09,24.04 8.56,15.23 8.02,35.38 7.56,52.66l0 0.09c-0.05,1.84 -0.1,3.73 -0.1,9.33l0 225.02c0,7.04 0.19,11.83 0.38,16.66 1.55,39.14 3.14,79.2 -44.01,90.04 -13.15,3.03 -25.3,1.3 -35.54,-3.04l0.01 -0.03c-12.39,-5.28 -22.02,-14.62 -27.33,-24.13 -8.56,-15.34 -8.02,-35.24 -7.56,-52.48l0 -0.09c0.05,-1.89 0.1,-3.84 0.1,-9.44l0 -225.02c0,-8.02 -0.21,-13.41 -0.41,-18.66z"/>
 </g>
</svg>
