<?xml version="1.0" encoding="UTF-8"?>
<!DOCTYPE svg PUBLIC "-//W3C//DTD SVG 1.1//EN" "http://www.w3.org/Graphics/SVG/1.1/DTD/svg11.dtd">
<!-- Creator: CorelDRAW (Evaluation Version) -->
<svg xmlns="http://www.w3.org/2000/svg" xml:space="preserve" width="50in" height="56.0297in" version="1.1" style="shape-rendering:geometricPrecision; text-rendering:geometricPrecision; image-rendering:optimizeQuality; fill-rule:evenodd; clip-rule:evenodd"
viewBox="0 0 1500.55 1681.51"
 xmlns:xlink="http://www.w3.org/1999/xlink"
 xmlns:xodm="http://www.corel.com/coreldraw/odm/2003">
 <defs>
  <style type="text/css">
   <![CDATA[
    .fil0 {fill:#CCCCCC}
   ]]>
  </style>
 </defs>
 <g id="Layer_x0020_1">
  <metadata id="CorelCorpID_0Corel-Layer"/>
  <path class="fil0" d="M750.36 1070.74c15.44,7.82 77.12,73.97 94.51,91.4l276.19 276.62c62.32,62.15 122.22,121.87 184.53,184.01 24.52,24.45 59.88,73.4 122.24,54.5 40.62,-12.31 82.05,-55.08 70.87,-113.15 -7.77,-40.37 -59.52,-80.99 -81.17,-102.64l-554.46 -554.46c-36.67,-36.67 -59.42,-74.51 -112.71,-74.51 -54.11,0 -76.64,38.44 -111.06,72.87l-552.81 552.81c-32.29,32.29 -75.41,66.52 -83.89,103.29 -18.06,78.3 67.21,146.85 140.58,108.11 27.3,-14.42 368.78,-363.28 418.99,-413.57 18.11,-18.14 170.72,-176.42 188.2,-185.27z"/>
  <path class="fil0" d="M750.36 238.23c17.79,9.01 33.9,30.68 48.48,45.29l506.75 506.74c24.52,24.45 59.88,73.4 122.24,54.5 40.62,-12.31 82.05,-55.08 70.87,-113.15 -7.77,-40.37 -59.52,-81 -81.17,-102.65l-554.46 -554.45c-36.67,-36.67 -59.42,-74.51 -112.71,-74.51 -54.11,0 -76.64,38.44 -111.06,72.87l-552.81 552.81c-32.29,32.29 -75.41,66.52 -83.89,103.29 -13.42,58.19 27.8,100.38 65.48,114.15 61.05,22.31 96.18,-22.08 123.76,-49.57 62.87,-62.68 123.31,-122.96 186.18,-185.65l276.2 -276.62c17.32,-17.36 81.25,-85.5 96.15,-93.04z"/>
 </g>
</svg>
