<?xml version="1.0" encoding="UTF-8"?>
<!DOCTYPE svg PUBLIC "-//W3C//DTD SVG 1.1//EN" "http://www.w3.org/Graphics/SVG/1.1/DTD/svg11.dtd">
<!-- Creator: CorelDRAW (Evaluation Version) -->
<svg xmlns="http://www.w3.org/2000/svg" xml:space="preserve" width="50in" height="88.1077in" version="1.1" style="shape-rendering:geometricPrecision; text-rendering:geometricPrecision; image-rendering:optimizeQuality; fill-rule:evenodd; clip-rule:evenodd"
viewBox="0 0 1592.03 2805.41"
 xmlns:xlink="http://www.w3.org/1999/xlink"
 xmlns:xodm="http://www.corel.com/coreldraw/odm/2003">
 <defs>
  <style type="text/css">
   <![CDATA[
    .fil0 {fill:#CCCCCC}
   ]]>
  </style>
 </defs>
 <g id="Layer_x0020_1">
  <metadata id="CorelCorpID_0Corel-Layer"/>
  <path class="fil0" d="M1134.98 1401.57c-16.82,33.21 -57.28,63.29 -84.55,90.51 -30.2,30.14 -55.89,55.8 -86.08,85.93l-516.43 515.65c-52.27,52.41 -401.35,390.89 -425.08,434.84 -72.05,133.43 48.01,303.17 205.24,273.49 63.38,-11.97 132.78,-97.93 189.7,-154.86l1035.14 -1035.14c68.5,-68.5 139.08,-110.9 139.1,-210.42 0.01,-53.63 -23.97,-96.62 -48.86,-122.68 -31.47,-32.95 -57.38,-54.88 -87.17,-84.68l-1161.77 -1160.44c-171,-111.24 -351.83,74.59 -276.76,233.89 13.6,28.86 55.33,71.81 77.84,94.09 117.77,116.59 230.24,229.57 347.6,346.59 116.33,115.99 227.72,227.99 343.8,344.25 58.79,58.88 113.09,113.28 171.85,172.18 30.14,30.21 55.78,55.89 85.93,86.08l90.49 90.71z"/>
 </g>
</svg>
