<?xml version="1.0" encoding="UTF-8"?>
<!DOCTYPE svg PUBLIC "-//W3C//DTD SVG 1.1//EN" "http://www.w3.org/Graphics/SVG/1.1/DTD/svg11.dtd">
<!-- Creator: CorelDRAW (Evaluation Version) -->
<svg xmlns="http://www.w3.org/2000/svg" xml:space="preserve" width="50in" height="49.99in" version="1.1" style="shape-rendering:geometricPrecision; text-rendering:geometricPrecision; image-rendering:optimizeQuality; fill-rule:evenodd; clip-rule:evenodd"
viewBox="0 0 14201.44 14198.6"
 xmlns:xlink="http://www.w3.org/1999/xlink"
 xmlns:xodm="http://www.corel.com/coreldraw/odm/2003">
 <defs>
  <style type="text/css">
   <![CDATA[
    .fil0 {fill:#CACACA}
   ]]>
  </style>
 </defs>
 <g id="Layer_x0020_1">
  <metadata id="CorelCorpID_0Corel-Layer"/>
  <path class="fil0" d="M5907.3 9187.26c-111.88,61.75 -2577.27,2561.5 -2735.43,2719.86 -648.6,649.35 -1427.85,1397.99 -2051.33,2047.39 -111.37,115.99 -200.28,227.21 -437.09,242.5 -601.21,38.81 -939.13,-640.08 -447,-1126.53 233.85,-231.15 453.96,-447.05 688.29,-677.96 463.73,-456.93 914.1,-897.66 1377.41,-1355.18l2058.71 -2039.94c123.35,-121.33 608.06,-568.46 673.01,-683.67 -48.86,-96.68 -312.73,-414.62 -484.23,-732.09 -837.19,-1549.73 -842.26,-3349.88 -19.35,-4903.69 175.24,-330.89 286.22,-456.66 492.41,-733.56 144.96,-194.68 550.81,-609.41 763.53,-783.55l533.77 -391.11c1349.66,-920.17 3431.87,-1008.67 4921.3,-301.18 155.54,73.88 248.27,128.56 394.09,208.2 205.45,112.2 543.18,360.21 729.89,516.22 60.9,50.89 94.01,94.71 155.76,145.25 273.07,223.5 253.61,267.06 457.85,466.35l276.05 347.14c573.61,832.01 904.01,1659.92 942.23,2756.7 27.53,790.15 -76.88,1414.03 -331.93,2101.28 -214.6,578.25 -539.94,1083.88 -947.1,1523.38 -321.99,347.56 -396.72,435.23 -789.09,738.48 -62.1,48 -110.36,79.96 -176.02,125.6 -1277.87,888.16 -2943.7,1109.37 -4447,652.61 -329.38,-100.08 -578.74,-214.06 -863.54,-361.84 -150.63,-78.16 -248.6,-148.85 -384.06,-238.36 -123.11,-81.35 -230.07,-187.52 -351.11,-262.28zm3317.08 -7976.33c943.95,46.88 1633.22,326.79 2328.26,874.95l379.89 362.91c75.58,93.32 151.65,159.75 224.98,257.52 248.28,331.02 375.55,517.08 555.69,931.78 429.1,987.83 358.97,2275.25 -116.17,3248.28 -126.54,259.14 -317.43,535.24 -481.98,743.87l-362.91 379.89c-211.39,171.2 -266.1,253.03 -547.52,437.45 -191.01,125.17 -416.75,243.92 -641.65,343.18 -965.16,425.99 -2293.75,359.56 -3254.96,-109.54 -415.41,-202.74 -837.96,-530.09 -1119.71,-850.42 -158.26,-179.94 -293.99,-312.51 -438.81,-544.46 -763.08,-1222.22 -819.84,-2589.07 -225.58,-3897.26 193.59,-426.16 441.4,-684.88 708.21,-999.2l678.74 -566.72c167.49,-107.76 435.86,-261.26 644.75,-339.47 539.19,-201.9 1033.75,-304.3 1668.77,-272.76z"/>
 </g>
</svg>
