<?xml version="1.0" encoding="UTF-8"?>
<!DOCTYPE svg PUBLIC "-//W3C//DTD SVG 1.1//EN" "http://www.w3.org/Graphics/SVG/1.1/DTD/svg11.dtd">
<!-- Creator: CorelDRAW (Evaluation Version) -->
<svg xmlns="http://www.w3.org/2000/svg" xml:space="preserve" width="50in" height="28.013in" version="1.1" style="shape-rendering:geometricPrecision; text-rendering:geometricPrecision; image-rendering:optimizeQuality; fill-rule:evenodd; clip-rule:evenodd"
viewBox="0 0 4310.72 2415.13"
 xmlns:xlink="http://www.w3.org/1999/xlink"
 xmlns:xodm="http://www.corel.com/coreldraw/odm/2003">
 <defs>
  <style type="text/css">
   <![CDATA[
    .fil0 {fill:#CCCCCC}
   ]]>
  </style>
 </defs>
 <g id="Layer_x0020_1">
  <metadata id="CorelCorpID_0Corel-Layer"/>
  <path class="fil0" d="M2065.42 2011.72c-34.06,-17.39 -814.08,-818.64 -837.6,-842.66 -29.35,-29.99 -69.63,-67.76 -136.44,-68.61 -129.64,-1.66 -203.6,135.46 -153.74,239.89 19.91,41.71 465.96,474.99 520.34,529.36 141.12,141.12 278.27,278.27 419.38,419.38 52.45,52.45 138.36,177.4 268.01,102.97 37.27,-21.39 1019.64,-1014.5 1052.4,-1047.26 280.91,-280.91 557.86,-557.86 838.77,-838.77 70.26,-70.26 136.75,-139.89 208.32,-208.37 37.04,-35.44 70.39,-67.82 65.36,-144.68 -4.06,-62.01 -43.31,-106.75 -81.46,-128.75 -132.08,-76.18 -217.33,46.81 -270.76,100.21l-1783.06 1783.06c-26.56,26.56 -80.5,89.53 -109.51,104.22z"/>
  <path class="fil0" d="M3192.63 5.76c-65.97,16.21 -76,40.42 -111.22,75.46l-1022.77 1022.74c-27.51,27.51 -119.31,113.1 -134.9,141 -12,21.48 -19.78,48.09 -20.14,76.79 -1.27,99.81 93.25,192.15 203.51,166.46 53.81,-12.54 77.66,-50.45 105.78,-78.48l1022.76 -1022.75c31.46,-31.46 59.72,-61.84 92.03,-91.95 32.78,-30.56 62.19,-61.33 63,-125.86 1.27,-101.12 -92.79,-189.28 -198.04,-163.41z"/>
  <path class="fil0" d="M135.19 1104.27c-113.27,27.84 -173.87,149.85 -107.94,253.45 13.57,21.33 22.75,24.2 40.06,41.12 297.57,290.88 606.78,606.92 903.64,903.78 43.05,43.05 105.19,134.98 213.14,107.35 71.36,-18.26 144.14,-98.78 126.01,-192.91 -12.25,-63.64 -90.97,-126.28 -147.03,-182.33l-814.84 -824.84c-40.39,-40.91 -108.87,-131.22 -213.06,-105.62z"/>
 </g>
</svg>
