<?xml version="1.0" encoding="UTF-8"?>
<!DOCTYPE svg PUBLIC "-//W3C//DTD SVG 1.1//EN" "http://www.w3.org/Graphics/SVG/1.1/DTD/svg11.dtd">
<!-- Creator: CorelDRAW (Evaluation Version) -->
<svg xmlns="http://www.w3.org/2000/svg" xml:space="preserve" width="50.0118in" height="50in" version="1.1" style="shape-rendering:geometricPrecision; text-rendering:geometricPrecision; image-rendering:optimizeQuality; fill-rule:evenodd; clip-rule:evenodd"
viewBox="0 0 39.04 39.03"
 xmlns:xlink="http://www.w3.org/1999/xlink"
 xmlns:xodm="http://www.corel.com/coreldraw/odm/2003">
 <defs>
  <style type="text/css">
   <![CDATA[
    .fil0 {fill:#99CC66}
   ]]>
  </style>
 </defs>
 <g id="PowerClip_x0020_Contents">
  <metadata id="CorelCorpID_0Corel-Layer"/>
  <path class="fil0" d="M28.19 38.23c-1.15,0.91 -2.54,0.97 -3.63,0.51 -1.57,-0.67 -1.87,-1.94 -2.41,-3.22l-5.16 -12.52c-0.36,-0.89 -0.77,-0.88 -1.57,-1.21 -2.43,-0.98 -4.84,-1.97 -7.24,-2.98 -1.43,-0.61 -6.3,-2.37 -7.17,-3.26 -1.11,-1.12 -1.17,-2.54 -0.83,-3.59 0.51,-1.58 1.77,-2.13 3.07,-2.51 2.42,-0.71 4.73,-1.42 7.17,-2.12 2.42,-0.7 4.81,-1.51 7.24,-2.17 1.22,-0.34 2.42,-0.7 3.59,-1.07 1.2,-0.38 2.38,-0.66 3.58,-1.06 1.16,-0.38 2.39,-0.72 3.59,-1.06 1.19,-0.34 2.37,-0.75 3.59,-1.08 1.11,-0.3 2.66,-0.92 3.59,-0.89 1.24,0.04 2.62,0.77 3.2,2.28 0.52,1.36 0.09,2.14 -0.31,3.59l-2.17 7.24c-0.35,1.2 -0.69,2.42 -1.07,3.59 -1.48,4.6 -2.84,9.66 -4.3,14.42 -0.38,1.23 -0.65,2.36 -1.06,3.58 -0.37,1.12 -0.54,2.61 -1.7,3.53z"/>
 </g>
</svg>
