<?xml version="1.0" encoding="UTF-8"?>
<!DOCTYPE svg PUBLIC "-//W3C//DTD SVG 1.1//EN" "http://www.w3.org/Graphics/SVG/1.1/DTD/svg11.dtd">
<!-- Creator: CorelDRAW (Evaluation Version) -->
<svg xmlns="http://www.w3.org/2000/svg" xml:space="preserve" width="50in" height="51.4717in" version="1.1" style="shape-rendering:geometricPrecision; text-rendering:geometricPrecision; image-rendering:optimizeQuality; fill-rule:evenodd; clip-rule:evenodd"
viewBox="0 0 8257.56 8500.61"
 xmlns:xlink="http://www.w3.org/1999/xlink"
 xmlns:xodm="http://www.corel.com/coreldraw/odm/2003">
 <defs>
  <style type="text/css">
   <![CDATA[
    .fil0 {fill:#CCCCCC}
   ]]>
  </style>
 </defs>
 <g id="Layer_x0020_1">
  <metadata id="CorelCorpID_0Corel-Layer"/>
  <path class="fil0" d="M2939.12 1350.67c-190.66,51.02 -468.85,205.54 -609.8,303.54 -198.84,138.23 -184.69,168.73 -274.85,121.68 -100.11,-52.26 -210.23,-95.41 -312.09,-145.29 -128.43,-62.88 -511.69,-256.12 -634.67,-277.08 -148.53,-25.32 -267.4,25.68 -348.78,100.95 -114.74,106.11 -427.67,707.13 -514.52,867.3 -184.1,339.5 -435.34,603.02 -14.03,906.14l660.74 487.04c48.4,35.44 86.16,67.69 133.6,95.92 -34.93,331.54 -38.6,546.31 -0.05,878.83l-262.76 190.12c-89.31,65.06 -179.52,130.31 -263.34,193.68 -90.74,68.61 -170.14,128.69 -261.83,194.9 -425.95,307.6 -183.58,555.26 3.96,903.46 79.82,148.2 409.53,771.86 510.58,870.93 207.26,203.19 444.77,85.69 672.19,-24.46 189.67,-91.87 459.88,-205.1 630.85,-293.75 91.68,-47.54 86.48,-9.25 275.01,121.81 129.03,89.7 437.36,265.87 609.85,314.01 14.61,132.76 150.5,1006.05 180.2,1085.08 50.32,133.94 191.8,246.77 370.75,254.72l1265.49 0.42c185.73,-6.49 329.2,-116.11 381.43,-255.13 29.97,-79.76 165.38,-952.65 180.2,-1084.51 188.16,-46.39 474.57,-210.92 605.35,-308.69 49.29,-36.85 86.88,-60.66 129.21,-93.81 53.42,-41.82 68.2,-76.41 143.31,-37.6 102.9,53.17 207.01,94.08 311.54,145.69 99.59,49.17 209.85,94.82 312.23,144.83 231.9,113.26 437.21,235.17 676.26,42.73 100.31,-80.75 567.54,-960.7 677.01,-1161.45 62.84,-115.24 115.04,-205.92 66.06,-364.86 -44.47,-144.32 -108.42,-176.11 -206.45,-250.19l-799.95 -577.39c38.07,-336.11 41.95,-573.22 -0.05,-910.45l859.97 -612.83c60.71,-48.64 105.43,-65.69 146.68,-204.1 65.64,-220.27 -102.1,-424.11 -232.53,-655.35 -67.48,-119.65 -430.5,-793.33 -509.83,-861.2 -83.89,-71.78 -192.25,-129.17 -347.35,-102.76 -92.5,15.75 -802.02,346.76 -946.77,422.39 -91.5,47.8 -78.27,9.21 -268.38,-127.87 -124.78,-89.97 -445.53,-258.06 -616.31,-307.62 -14.65,-132.94 -150.63,-1006.8 -180.17,-1085.25 -50.51,-134.14 -191.98,-246.82 -370.77,-254.77l-1265.51 -0.39c-447.16,15.04 -423.2,464 -476.19,799.51 -28.4,179.8 -65.52,371.82 -85.48,551.17zm1101.94 1522.67c-233.22,12.29 -480.73,88.46 -655.83,209.02 -175.51,120.84 -311.71,252.6 -429.24,431.29 -278.16,422.91 -277.11,1070.93 4.27,1479.61 27.63,40.13 43.95,58.11 71.38,98.49 72.66,106.98 248.55,257.49 359.92,330.74 422.76,278.07 1071.05,277.03 1479.61,-4.27 119.53,-82.3 278.15,-215.33 357.85,-332.84 104.46,-154.03 99.45,-120.65 188.58,-332.08 75.27,-178.54 98.19,-389.28 87.5,-597.78 -9.91,-193.28 -65.34,-391.88 -147.22,-539.83 -21.67,-39.15 -38.23,-74.21 -61.74,-108.37 -293.59,-426.41 -711.55,-662.62 -1255.08,-633.98z"/>
 </g>
</svg>
