<?xml version="1.0" encoding="UTF-8"?>
<!DOCTYPE svg PUBLIC "-//W3C//DTD SVG 1.1//EN" "http://www.w3.org/Graphics/SVG/1.1/DTD/svg11.dtd">
<!-- Creator: CorelDRAW (Evaluation Version) -->
<svg xmlns="http://www.w3.org/2000/svg" xml:space="preserve" width="55.7536in" height="50in" version="1.1" style="shape-rendering:geometricPrecision; text-rendering:geometricPrecision; image-rendering:optimizeQuality; fill-rule:evenodd; clip-rule:evenodd"
viewBox="0 0 7000.07 6277.68"
 xmlns:xlink="http://www.w3.org/1999/xlink"
 xmlns:xodm="http://www.corel.com/coreldraw/odm/2003">
 <defs>
  <style type="text/css">
   <![CDATA[
    .fil0 {fill:#CCCCCC}
   ]]>
  </style>
 </defs>
 <g id="Layer_x0020_1">
  <metadata id="CorelCorpID_0Corel-Layer"/>
  <path class="fil0" d="M975.62 11.15c-114.4,18.2 -221.71,58.58 -296.8,117.44 -265.57,208.14 -299.51,522.14 -403.67,841.84 -69.01,211.82 -132.61,417.77 -200.97,627.44 -111.61,342.33 -110.74,690.97 96.07,995.58 224.9,331.25 184.16,-17.01 184.16,643.43l0 2082.27c0,244.6 -36.92,558.97 96.65,731.1 39.3,50.64 53.11,66.37 98.53,102.06 172.4,135.45 242.36,125.21 501.81,125.21l4983.5 0.02c137.84,0.21 233.39,-9.3 337.12,-72.47 84.75,-51.61 158.41,-127.28 204.5,-213.61 92.06,-172.44 59.54,-551.56 59.54,-768.15l0 -2282.65c-0.02,-275.52 -8.54,-40.3 218.93,-399.74 52.87,-83.54 95.79,-197.69 118.33,-300.68 60.2,-275.08 10.64,-455.4 -68.04,-701.11 -67.77,-211.63 -135.62,-422.76 -206.05,-630.64 -61.8,-182.41 -130.43,-461.15 -225.59,-602.28 -114.53,-169.86 -310.94,-287.34 -525.64,-299.05 -264.37,-14.42 -560.16,-2.6 -827.9,-2.6 -1245.88,0 -2491.75,0 -3737.63,0 -115.6,0 -301.41,-10.19 -406.85,6.59zm67.07 3042.76l-163.75 -6.13 -1.79 2706.98 5236.16 0 -2.18 -2702.17c-395.55,15.11 -622.62,-45.1 -908.9,-298.59 -22.39,-19.83 -62.49,-60.58 -94.38,-70.1 -58.85,100.53 -183.67,187.29 -316.86,258.93 -320.52,172.38 -844.94,145.09 -1136.8,-78.44 -58.94,-45.14 -107.14,-86.76 -154.61,-128.58 -53.72,30.21 -253.42,344.19 -835.5,315.65 -193.4,-9.48 -403.13,-58.11 -550.71,-162.04l-165.91 -130.33c-25.51,-26.69 -33.21,-52.59 -68.39,-75.55 -140.78,96.92 -159.52,141.23 -352.73,244.4 -148.52,79.31 -293.32,125.96 -483.66,125.96zm2718.27 -1115.19c0,552.31 549.09,755.86 915.42,453.95 211.21,-174.06 190.28,-321.84 149.54,-586.51 -58.41,-379.37 -156.38,-933.77 -192.57,-1278.86l-872.39 0 0 1411.41zm-522.74 -1411.41l-871.24 0c-17.43,180.54 -59.1,392.88 -87.3,575.01 -29.74,192.15 -58.41,382.87 -87.08,574.98 -29.98,200.94 -89.47,392.96 1.84,573.36 172.37,340.56 637.42,359.56 879.11,107.1 138.17,-144.33 164.74,-240.81 164.65,-497.44 -0.15,-444.33 0,-888.67 0,-1333zm-1402.7 0l-871.92 0c-108.66,358.59 -228.04,716.9 -341.5,1086.52 -108.11,352.17 -163.74,500.34 105.95,796.21 15.24,16.72 81.28,58.22 111.34,71.76 43.91,19.78 92.84,34.92 142.78,42.15 187.48,27.15 393.92,-47.56 502.97,-195.08 124.07,-167.84 126.56,-314.65 162.82,-553.16 31.3,-205.84 61.77,-412.99 92.88,-619.87 30.98,-205.97 70.85,-423.09 94.67,-628.51zm4200.11 0l-871.97 0c23.43,202.49 62.74,418.92 93.19,621.22 31.35,208.33 62.07,413.64 93.74,622.34 33.54,221.02 40.95,397.73 160.01,552.66 92.95,120.95 276.35,238.52 507.47,199.07 176.26,-30.09 328.19,-148.97 399.64,-314.39 97.26,-225.17 26.19,-376.9 -37.96,-588.06 -113.37,-373.21 -233.36,-730.4 -344.12,-1092.84z"/>
 </g>
</svg>
