<?xml version="1.0" encoding="UTF-8"?>
<!DOCTYPE svg PUBLIC "-//W3C//DTD SVG 1.1//EN" "http://www.w3.org/Graphics/SVG/1.1/DTD/svg11.dtd">
<!-- Creator: CorelDRAW (Evaluation Version) -->
<svg xmlns="http://www.w3.org/2000/svg" xml:space="preserve" width="71.8664in" height="50in" version="1.1" style="shape-rendering:geometricPrecision; text-rendering:geometricPrecision; image-rendering:optimizeQuality; fill-rule:evenodd; clip-rule:evenodd"
viewBox="0 0 17729.02 12334.72"
 xmlns:xlink="http://www.w3.org/1999/xlink"
 xmlns:xodm="http://www.corel.com/coreldraw/odm/2003">
 <defs>
  <style type="text/css">
   <![CDATA[
    .fil0 {fill:#111111}
   ]]>
  </style>
 </defs>
 <g id="Layer_x0020_1">
  <metadata id="CorelCorpID_0Corel-Layer"/>
  <path class="fil0" d="M8673.48 4.33c-1272.42,44.71 -1962.05,199.1 -3121.49,626.67 -882.9,325.59 -1635.87,839.74 -2364.46,1398.88 -87.09,66.84 -160.6,136.85 -248.78,203.67 -187.36,141.98 -416.88,378.38 -500.93,444.43l-481.36 464.78c-570.79,612.89 -971.43,1112.39 -1446.12,1844.26 -732.02,1128.62 -673.98,1375.49 157.59,2592.54 295.04,431.8 416.49,569.24 687.77,937.02l1023.08 1094.4 502.42 444.2c1769.84,1471.54 3776.8,2357.21 6189.14,2274.16 1263.59,-43.5 1961.54,-202.43 3111.31,-626.44 404.28,-149.09 907.8,-404.03 1251.04,-619.94 388.62,-244.47 760.96,-496.07 1114.18,-778.19 457.12,-365.11 718.4,-594.28 1102.37,-995.39 47.3,-49.41 78.24,-67.38 130.76,-115.57 78,-71.58 161.48,-164.17 225.96,-247.87l435.2 -510.25c247.73,-304.93 925.09,-1255.72 1137.44,-1679.84 404.37,-807.6 -88.57,-1327.76 -512.87,-2001.79 -116.6,-185.24 -261.96,-383.28 -382.67,-542.93 -69.53,-91.98 -129.22,-166.5 -206.32,-266.32l-645.93 -752.77c-307.37,-323.57 -646.95,-619.63 -979.67,-911.95 -50.79,-44.63 -73.74,-57 -124.6,-101.65 -42.6,-37.4 -85.18,-74.89 -132.89,-113.54l-810.95 -588.02c-620.4,-411.47 -1164.08,-679.61 -1881.82,-955.61 -909.72,-349.82 -2170.47,-554.09 -3227.41,-516.95zm3.63 2675.28c-556.71,24.62 -953.38,147.24 -1395.4,360.43 -175.33,84.56 -516.48,308.04 -646.42,422.68 -199.25,175.81 -301.4,306.26 -443.39,440.27 -180.95,170.78 -482.71,710.28 -579.47,962.96 -453.95,1185.56 -256.85,2569.25 549.42,3533.3 40.81,48.79 70.29,58.49 113.31,111.73 72.56,89.77 124.9,157.17 221.61,231.63 139.86,107.68 266.27,249.28 483.7,380.17 665.02,400.33 1234.22,568.06 2076.21,531.89 765.8,-32.91 1488.12,-319.15 2042.43,-782.74 122.22,-102.21 445.57,-431.95 542.76,-567.23 523.86,-729.17 754.73,-1336.27 712.44,-2332.91 -23.3,-549.13 -150.56,-954.75 -360.6,-1389.92 -84.61,-175.31 -307.97,-516.46 -422.66,-646.45 -42.62,-48.31 -68.98,-61.73 -110.71,-114.82 -136.04,-173.08 -507.7,-489.4 -707.16,-609.47 -191.38,-115.21 -351.22,-208.92 -585.35,-298.57 -462.2,-176.98 -948.99,-256.9 -1490.71,-232.95z"/>
  <path class="fil0" d="M8775.39 3870.18c-409.18,27.82 -596.69,73.04 -927.26,228.67 -217.44,102.37 -517.69,309 -661.79,490.7 -139.3,175.63 -63.09,50.33 -254.42,321.49 -532.15,754.18 -468.39,1859.5 80.94,2637.21 197.81,280.06 640.41,630.35 972.27,754.94 788.27,295.95 1586.7,195.4 2262.99,-282.28 280.05,-197.81 630.34,-640.41 754.94,-972.28 229.33,-610.81 225.9,-1321.43 -66.05,-1903.11 -75.5,-150.41 -130.09,-240.84 -216.57,-359.46 -54.15,-74.27 -68,-84.65 -134.89,-152.02 -252.51,-254.34 -460.73,-462.05 -837.06,-603.34 -286.56,-107.59 -639.85,-183.19 -973.11,-160.53z"/>
 </g>
</svg>
