<?xml version="1.0" encoding="UTF-8"?>
<!DOCTYPE svg PUBLIC "-//W3C//DTD SVG 1.1//EN" "http://www.w3.org/Graphics/SVG/1.1/DTD/svg11.dtd">
<!-- Creator: CorelDRAW (Evaluation Version) -->
<svg xmlns="http://www.w3.org/2000/svg" xml:space="preserve" width="50in" height="56.0291in" version="1.1" style="shape-rendering:geometricPrecision; text-rendering:geometricPrecision; image-rendering:optimizeQuality; fill-rule:evenodd; clip-rule:evenodd"
viewBox="0 0 3255.56 3648.13"
 xmlns:xlink="http://www.w3.org/1999/xlink"
 xmlns:xodm="http://www.corel.com/coreldraw/odm/2003">
 <defs>
  <style type="text/css">
   <![CDATA[
    .fil0 {fill:#CACACA}
   ]]>
  </style>
 </defs>
 <g id="Layer_x0020_1">
  <metadata id="CorelCorpID_0Corel-Layer"/>
  <path class="fil0" d="M370.13 6.28c-104.66,8.37 -190.47,47.01 -252.47,112.72 -35.44,37.57 -71.02,86.13 -89.82,137.66 -40.97,112.33 -24.64,433.2 -24.64,573.15l-0.06 2391.29c0.35,169.65 65.44,304.41 215.64,382.29 104.01,53.93 420.47,47.99 555.08,38.47 154.63,-10.94 290.38,-108.94 341.94,-250.55 41.03,-112.69 24.65,-432.86 24.65,-573.15l0.07 -2391.24c-0.27,-119.51 -21.33,-200.15 -90.47,-279.78 -12.59,-14.5 -18.44,-26.17 -37.02,-41.06 -119.2,-95.59 -174.64,-101.58 -346.99,-101.55 -93.19,0.02 -205.65,-5.46 -295.92,1.76zm2100.88 1.06c-93.52,7.67 -154,37.12 -209.31,85.11 -57.65,50.03 -99.18,95.95 -125.42,173.62 -36.91,109.28 -21.28,439.5 -21.28,576.74 0,398.53 0,797.07 0,1195.6 0,397.73 -4.79,798.36 -0.03,1195.73 2.06,171.76 48.15,220.24 135.95,312.58 20.88,21.96 53.28,44.72 88.36,60.94 104.37,48.28 427.26,44.68 558.84,33.18 86.57,-7.56 160.3,-39.29 207.55,-85.33 14.69,-14.31 24.78,-17.79 38.47,-33.2 38.59,-43.42 66.19,-79.33 86.8,-140.36 36.99,-109.56 21.31,-439.25 21.31,-576.79 0,-398.53 0,-797.07 0,-1195.6 0,-397.73 4.79,-798.36 0.03,-1195.73 -1.96,-163.93 -76.85,-305.31 -224.31,-373.52 -106.35,-49.19 -424.06,-43.87 -556.97,-32.97z"/>
 </g>
</svg>
