<?xml version="1.0" encoding="UTF-8"?>
<!DOCTYPE svg PUBLIC "-//W3C//DTD SVG 1.1//EN" "http://www.w3.org/Graphics/SVG/1.1/DTD/svg11.dtd">
<!-- Creator: CorelDRAW (Evaluation Version) -->
<svg xmlns="http://www.w3.org/2000/svg" xml:space="preserve" width="50.0902in" height="50in" version="1.1" style="shape-rendering:geometricPrecision; text-rendering:geometricPrecision; image-rendering:optimizeQuality; fill-rule:evenodd; clip-rule:evenodd"
viewBox="0 0 3545.5 3539.12"
 xmlns:xlink="http://www.w3.org/1999/xlink"
 xmlns:xodm="http://www.corel.com/coreldraw/odm/2003">
 <defs>
  <style type="text/css">
   <![CDATA[
    .fil0 {fill:#CCCCCC}
   ]]>
  </style>
 </defs>
 <g id="PowerClip_x0020_Contents">
  <metadata id="CorelCorpID_0Corel-Layer"/>
  <g id="_2842706599344">
   <path class="fil0" d="M409.23 5.97c-148.95,12.44 -225.89,76.64 -293.72,150.83 -81.5,89.14 -109.69,176.68 -109.66,331.74l0.06 2208.3c0,210.49 -42.3,531.42 99.26,673.49 103.41,103.78 167.96,165.76 386.55,165.72l2208.3 -0.07c136.64,0 305.17,8.72 438.02,-2.96 147.95,-13.01 265.59,-94.53 339.34,-213.42 15.72,-25.34 24.68,-43 35.8,-74.51 21.03,-59.59 26.06,-127.32 26.05,-194.92l-0.07 -2208.3c0,-241.1 43.75,-511.89 -98.97,-673.71 -110.94,-125.79 -205.43,-165.54 -386.84,-165.51l-2208.3 0.07c-137.55,0 -302.36,-7.93 -435.84,3.23z"/>
  </g>
 </g>
</svg>
