<svg xmlns="http://www.w3.org/2000/svg" width="300px" height="300px" style="clip-rule:evenodd" viewBox="0 0 22048.42 22322.81" fill="#cccccc" >
  <path d="M7904.3 1848.51c-2520.39,84.5 -5422.45,160.77 -7904.3,-28.52 15.89,6684.7 587.13,14038.59 1751.69,20417.04l812.24 -111.67c368.46,-50.96 791.66,-203.21 1138.87,-148.53 232.11,-176.41 1877.99,-452.5 2315.63,-563.47 2195.56,-556.71 4365.04,-1289.36 6344.97,-2285.44 1591.01,-800.39 3918.95,-2307.41 4964.5,-3664.18 409.31,-531.15 468.77,-520.47 935.38,-1223.08 114.59,-172.54 181.88,-340.42 332.78,-446.78l-18.57 -0.53c56.76,-152.29 114.91,-290.85 248.15,-346.07 93.48,-38.75 108.23,-44.31 215.3,-27.2 197.52,31.58 158.32,86.7 176.79,122.53l481.83 992.41c85.15,168.46 151.2,302.13 268.55,490.23 121.3,194.46 237.43,299.66 266.09,479.12 151.79,74.1 886.61,1103.94 1632.94,241.39 382.81,-442.41 55.27,-1413.16 -40.9,-1997.08 -447.64,-2717.76 -804.18,-6171.39 -882.16,-8934.75 -22.62,-801.46 -54.26,-1586.96 -61.69,-2393.73 -6.98,-757.12 54.39,-1691.37 -4.41,-2420.2l-3808.31 806.76c-482.97,85.38 -3899.03,573.55 -4009.92,628.16 -3594.47,286.01 -2156.51,312.94 -5155.44,413.6z"/>
  <path d="M5804.37 22192.38l158.16 34.65c1571.35,149.51 7051.95,-1397.07 8719.89,-1945.91 1302.95,-428.74 2617.94,-931.9 3819.92,-1485.87 1046.35,-482.26 2823.68,-1268.07 3248.1,-2086.53l-317.75 57.87c-724.92,135.94 -1260.91,-268.6 -1543.14,-613.68 -194.5,-237.78 -796.7,-1006.64 -826.79,-1373.56l-130.17 -162.55c-238.84,186.15 -728.09,1042.14 -1146.45,1422.73 -472.97,430.26 -694.69,750.61 -1306.46,1260.86 -2043.44,1704.38 -4119.07,2736.41 -6681.74,3701.71 -1037.64,390.85 -2867.94,1015.95 -3993.57,1190.29z"/>
</svg>
