<?xml version="1.0" encoding="UTF-8"?>
<!DOCTYPE svg PUBLIC "-//W3C//DTD SVG 1.1//EN" "http://www.w3.org/Graphics/SVG/1.1/DTD/svg11.dtd">
<!-- Creator: CorelDRAW (Evaluation Version) -->
<svg xmlns="http://www.w3.org/2000/svg" xml:space="preserve" width="71.1714in" height="50in" version="1.1" style="shape-rendering:geometricPrecision; text-rendering:geometricPrecision; image-rendering:optimizeQuality; fill-rule:evenodd; clip-rule:evenodd"
viewBox="0 0 9723.38 6830.96"
 xmlns:xlink="http://www.w3.org/1999/xlink"
 xmlns:xodm="http://www.corel.com/coreldraw/odm/2003">
 <defs>
  <style type="text/css">
   <![CDATA[
    .fil0 {fill:#CBCBCB}
   ]]>
  </style>
 </defs>
 <g id="Layer_x0020_1">
  <metadata id="CorelCorpID_0Corel-Layer"/>
  <path class="fil0" d="M3308.64 3975.82c-959.62,31.67 -1659.36,281.3 -2475.38,619.46 -292.1,121.05 -507.43,285.84 -664.16,566.49 -169.32,303.21 -188.92,722.09 -155.44,1073.42 32.12,337.07 297.4,574.98 643.69,589.55 202.59,8.53 421.68,0.98 626.09,0.98l4945.03 0c211.64,0.02 359.71,-2.05 511.55,-104.05 109.33,-73.45 216.82,-187.4 268.44,-346.21 46.92,-144.36 37.16,-421.44 32.78,-582.76 -6.6,-242.87 -73.39,-527.19 -216.78,-716.86 -79.43,-105.06 -49.98,-75.84 -140.04,-167.12 -136.42,-138.26 -175.33,-165.41 -357.43,-258.62 -258.39,-132.26 -606.72,-254.55 -888.44,-353.04 -665.39,-232.63 -1372.3,-346.25 -2129.91,-321.25z"/>
  <path class="fil0" d="M3324.42 11.87c-277.71,35.69 -417.82,81.24 -639.66,193.29 -115.74,58.46 -277.48,184.2 -353.74,261.49 -90.02,91.23 -191.71,226.69 -257.89,357.59 -271.05,536.15 -261.55,1133.7 7.33,1666.05 51.96,102.87 189.34,286.88 261.59,353.4 19.91,18.33 33.22,27.15 55.3,44.24 31.96,24.73 27.77,28.02 54.83,54.55 95.05,93.18 394.98,243.07 542.03,281.73 494.2,129.93 924.44,96.12 1371.39,-129.62 73.18,-36.96 197.18,-116.62 242.09,-164.2 64.54,-68.36 64.61,-35.18 155.55,-152.69 66.7,-86.19 101.63,-79.93 213.99,-302.19 48.54,-96.02 93.17,-183.91 122.29,-294.67 130.03,-494.56 96.15,-924.39 -129.62,-1371.38 -58.46,-115.74 -184.2,-277.48 -261.5,-353.74 -159.93,-157.8 -425.72,-320.46 -652.46,-379.97 -228.69,-60.02 -484.39,-95.64 -731.53,-63.87z"/>
  <path class="fil0" d="M7700.94 5814.69l0 329.67c0,290.19 -87.87,432.51 -151.53,679.05 231.87,15.48 1178.15,2.37 1481.25,2.32 104.65,0 201.96,-15.63 289.8,-50.75 244.06,-97.57 402.56,-346.27 402.56,-641.61 0,-386.89 18.93,-719.88 -218.74,-1044.97 -50.6,-69.21 -90.73,-123.46 -149.04,-180.34 -53.98,-52.65 -101.12,-105.09 -165.17,-153.97 -215.27,-164.3 -348.81,-238.35 -629.37,-337.49 -570.38,-201.56 -1510.98,-393.12 -2122.91,-445.35 400.82,214.64 822.37,436.91 1052.72,878.4 45.44,87.1 88.42,176.45 117.03,278.03 67.59,239.93 93.39,422.62 93.39,687.02z"/>
  <path class="fil0" d="M5298.72 82.22c364.38,452.58 535.17,949.56 533.57,1567.66 -1.17,454.88 -85.11,893.53 -310.83,1271.14 -34.69,58.03 -71.74,106.68 -105.81,157.81l-116.23 139.5c182.79,100.41 648.34,84.36 867.16,50.76 135.68,-20.84 255.38,-60.51 374.75,-108.52 57.08,-22.96 112.53,-55.19 161.03,-80.97 59.91,-31.86 99.61,-65.46 152.25,-100.22 50.01,-33.02 86.59,-72.9 132.37,-109.86 54.07,-43.66 70.68,-85.92 115.12,-126.45 76.77,-70.01 140.33,-190.14 197.92,-296.64 241.07,-445.85 241.07,-1147.24 0,-1593.09 -52.92,-97.87 -124.53,-231.58 -192,-291.7 -51.91,-46.26 -116.9,-151.13 -253.4,-241.25 -227.42,-150.15 -387.6,-243.47 -688.66,-289.96 -149.8,-23.13 -292.03,-34.9 -450.68,-23.62 -96.58,6.86 -339.74,39.42 -416.55,75.43z"/>
 </g>
</svg>
