<?xml version="1.0" encoding="UTF-8"?>
<!DOCTYPE svg PUBLIC "-//W3C//DTD SVG 1.1//EN" "http://www.w3.org/Graphics/SVG/1.1/DTD/svg11.dtd">
<!-- Creator: CorelDRAW (Evaluation Version) -->
<svg xmlns="http://www.w3.org/2000/svg" xml:space="preserve" width="48.0539in" height="50in" version="1.1" style="shape-rendering:geometricPrecision; text-rendering:geometricPrecision; image-rendering:optimizeQuality; fill-rule:evenodd; clip-rule:evenodd"
viewBox="0 0 179.26 186.52"
 xmlns:xlink="http://www.w3.org/1999/xlink"
 xmlns:xodm="http://www.corel.com/coreldraw/odm/2003">
 <defs>
  <style type="text/css">
   <![CDATA[
    .fil0 {fill:#CCCCCC}
   ]]>
  </style>
 </defs>
 <g id="PowerClip_x0020_Contents">
  <metadata id="CorelCorpID_0Corel-Layer"/>
  <path class="fil0" d="M0.1 186.52l179.05 0c0.93,-18.01 -5.16,-36.37 -12.3,-49.68 -1.91,-3.54 -4.01,-6.47 -6.09,-9.53 -1.12,-1.63 -2.24,-2.98 -3.39,-4.46l-3.53 -3.94c-4.77,-4.87 -6.64,-7.07 -12.2,-11.27 -1.34,-1.01 -2.87,-2.13 -4.46,-3.1l-4.82 3.75c-4.09,3.29 -10.39,6.98 -15.41,9.05 -8.36,3.44 -17.34,5.56 -27.34,5.56 -15.52,0 -34.18,-6.4 -45.21,-16.55 -0.81,-0.76 -1.29,-1.29 -2.36,-1.69 -3.18,1.86 -5.97,4.35 -8.86,6.71l-4.08 3.75c-1.5,1.38 -2.29,2.46 -3.92,3.91l-3.61 4.21c-1.17,1.38 -2.15,2.89 -3.35,4.46 -1.91,2.53 -4.13,6.21 -5.9,9.39 -7.02,12.52 -13.14,32.31 -12.23,49.42zm85.41 -186.41c-36.9,2.17 -60.35,43.11 -42.63,77.19 1.5,2.87 3.32,5.8 5.2,8.07 2.24,2.72 3.85,4.8 6.43,6.81 6.07,4.71 7.72,6.42 16.29,9.87 13.85,5.59 30.5,4.18 43.49,-2.67 4.92,-2.6 11.72,-7.47 14.85,-11.66 2.1,-2.82 3.11,-3.27 5.5,-7.4 11.41,-19.68 10.34,-42.61 -3.56,-60.3 -10.84,-13.81 -27.8,-20.97 -45.57,-19.92z"/>
 </g>
</svg>
