<?xml version="1.0" encoding="UTF-8"?>
<!DOCTYPE svg PUBLIC "-//W3C//DTD SVG 1.1//EN" "http://www.w3.org/Graphics/SVG/1.1/DTD/svg11.dtd">
<!-- Creator: CorelDRAW (Evaluation Version) -->
<svg xmlns="http://www.w3.org/2000/svg" xml:space="preserve" width="50.1094in" height="50in" version="1.1" style="shape-rendering:geometricPrecision; text-rendering:geometricPrecision; image-rendering:optimizeQuality; fill-rule:evenodd; clip-rule:evenodd"
viewBox="0 0 373.68 372.86"
 xmlns:xlink="http://www.w3.org/1999/xlink"
 xmlns:xodm="http://www.corel.com/coreldraw/odm/2003">
 <defs>
  <style type="text/css">
   <![CDATA[
    .fil0 {fill:#99CC66}
   ]]>
  </style>
 </defs>
 <g id="PowerClip_x0020_Contents">
  <metadata id="CorelCorpID_0Corel-Layer"/>
  <path class="fil0" d="M0.71 194.07c2.28,12.15 13.4,15.58 25.48,20.58 10.98,4.57 21.91,9.41 32.49,14.33 10.77,5 21.07,10.17 30.37,16.37 12.53,8.35 15.42,12.67 25.01,21.75 9.27,8.78 13.95,13.97 21.34,25.34 5.85,9 11.2,20.23 16.01,30.8 13.35,29.23 17.1,55.6 41.98,48.42 12.04,-3.48 14.27,-17.13 19.2,-28.11 15.28,-33.96 25.75,-61.96 54.84,-85.48 58.89,-47.58 120.83,-42.33 103.18,-78.79 -6.69,-13.84 -60,-28 -90.84,-49.92l-18.9 -16.18c-4.16,-3.83 -2.07,-1.01 -6.09,-5.46 -4.92,-5.41 -14.74,-19.3 -19.44,-27.43 -21.94,-37.82 -24.9,-88.69 -56.09,-79.09 -11.26,3.48 -13.54,16.26 -18.76,28.41 -4.84,11.36 -8.7,22.35 -13.87,32.9 -31.38,64.03 -67.84,79.17 -129.14,104.68 -11.58,4.81 -20.01,9.87 -16.78,26.89z"/>
 </g>
</svg>
