<?xml version="1.0" encoding="UTF-8"?>
<!DOCTYPE svg PUBLIC "-//W3C//DTD SVG 1.1//EN" "http://www.w3.org/Graphics/SVG/1.1/DTD/svg11.dtd">
<!-- Creator: CorelDRAW (Evaluation Version) -->
<svg xmlns="http://www.w3.org/2000/svg" xml:space="preserve" width="50in" height="45.9667in" version="1.1" style="shape-rendering:geometricPrecision; text-rendering:geometricPrecision; image-rendering:optimizeQuality; fill-rule:evenodd; clip-rule:evenodd"
viewBox="0 0 161.19 148.19"
 xmlns:xlink="http://www.w3.org/1999/xlink"
 xmlns:xodm="http://www.corel.com/coreldraw/odm/2003">
 <defs>
  <style type="text/css">
   <![CDATA[
    .fil0 {fill:#999999}
   ]]>
  </style>
 </defs>
 <g id="PowerClip_x0020_Contents">
  <metadata id="CorelCorpID_0Corel-Layer"/>
  <path class="fil0" d="M-0 75.78c1.57,2.62 1.34,2.81 3.36,4.84l47.52 47.53c5.73,5.71 11.4,11.86 17.29,17.29 3.62,3.33 8.21,4.03 11.65,-0.16 4.13,-5.04 0.26,-9.07 -2.31,-11.63l-12.99 -12.94c-1.51,-1.48 -2.61,-3.03 -4.11,-4.53l-25.97 -25.88c-2.41,-2.39 -6.68,-6.11 -8.62,-8.69 4.83,0 125.82,0.38 129.14,-0.15 3.72,-0.61 4.56,-3.03 6.24,-5.73l0 -3.32c-1.72,-2.86 -2.28,-5.02 -6.24,-5.66 -3.55,-0.57 -124.08,-0.16 -129.12,-0.16 1.55,-2.25 6.4,-6.55 8.55,-8.71l43.22 -43.22c2.44,-2.43 6.29,-6.77 2.23,-11.73 -3.44,-4.19 -8.05,-3.52 -11.66,-0.16 -5.91,5.51 -11.52,11.52 -17.29,17.29l-47.53 47.52c-2.01,2 -1.79,2.23 -3.35,4.84l0 3.37z"/>
 </g>
</svg>
