<?xml version="1.0" encoding="UTF-8"?>
<!DOCTYPE svg PUBLIC "-//W3C//DTD SVG 1.1//EN" "http://www.w3.org/Graphics/SVG/1.1/DTD/svg11.dtd">
<!-- Creator: CorelDRAW (Evaluation Version) -->
<svg xmlns="http://www.w3.org/2000/svg" xml:space="preserve" width="50in" height="50in" version="1.1" style="shape-rendering:geometricPrecision; text-rendering:geometricPrecision; image-rendering:optimizeQuality; fill-rule:evenodd; clip-rule:evenodd"
viewBox="0 0 24.06 24.06"
 xmlns:xlink="http://www.w3.org/1999/xlink"
 xmlns:xodm="http://www.corel.com/coreldraw/odm/2003">
 <defs>
  <style type="text/css">
   <![CDATA[
    .fil0 {fill:#999999;fill-rule:nonzero}
   ]]>
  </style>
 </defs>
 <g id="PowerClip_x0020_Contents">
  <metadata id="CorelCorpID_0Corel-Layer"/>
  <path class="fil0" d="M12.03 2.96c-2.51,0 -4.77,1.02 -6.42,2.66 -1.64,1.64 -2.66,3.91 -2.66,6.41 0,2.51 1.02,4.77 2.66,6.42 1.64,1.64 3.91,2.66 6.42,2.66 2.5,0 4.77,-1.02 6.41,-2.66 1.64,-1.64 2.66,-3.91 2.66,-6.42 0,-2.5 -1.02,-4.77 -2.66,-6.41 -1.64,-1.64 -3.91,-2.66 -6.41,-2.66zm-1.48 2.29c0,-0.82 0.66,-1.48 1.48,-1.48 0.82,0 1.48,0.66 1.48,1.48l0 5.3 5.6 0c0.82,0 1.48,0.66 1.48,1.48 0,0.82 -0.66,1.48 -1.48,1.48l-7.08 0c-0.82,0 -1.48,-0.66 -1.48,-1.48l0 -6.78zm-7.03 -1.72c2.18,-2.18 5.19,-3.52 8.51,-3.52 3.32,0 6.33,1.35 8.5,3.52 2.18,2.18 3.52,5.19 3.52,8.5 0,3.32 -1.35,6.33 -3.52,8.51 -2.18,2.18 -5.19,3.52 -8.5,3.52 -3.32,0 -6.33,-1.35 -8.51,-3.52 -2.18,-2.18 -3.52,-5.19 -3.52,-8.51 0,-3.32 1.35,-6.33 3.52,-8.5z"/>
 </g>
</svg>
