<?xml version="1.0" encoding="UTF-8"?>
<!DOCTYPE svg PUBLIC "-//W3C//DTD SVG 1.1//EN" "http://www.w3.org/Graphics/SVG/1.1/DTD/svg11.dtd">
<!-- Creator: CorelDRAW (Evaluation Version) -->
<svg xmlns="http://www.w3.org/2000/svg" xml:space="preserve" width="54.0719in" height="50in" version="1.1" style="shape-rendering:geometricPrecision; text-rendering:geometricPrecision; image-rendering:optimizeQuality; fill-rule:evenodd; clip-rule:evenodd"
viewBox="0 0 34.54 31.94"
 xmlns:xlink="http://www.w3.org/1999/xlink"
 xmlns:xodm="http://www.corel.com/coreldraw/odm/2003">
 <defs>
  <style type="text/css">
   <![CDATA[
    .fil0 {fill:#999999}
   ]]>
  </style>
 </defs>
 <g id="PowerClip_x0020_Contents">
  <metadata id="CorelCorpID_0Corel-Layer"/>
  <path class="fil0" d="M21.82 31.94c-0.18,-1.15 -0.49,-2.39 -0.73,-3.55 -0.12,-0.59 -0.24,-1.15 -0.36,-1.74 -0.1,-0.48 -0.46,-1.35 -0.02,-1.67 0.38,-0.28 7.16,-0.04 8.34,-0.14 2.39,-0.2 4.19,-1.8 4.95,-3.52 0.56,-1.29 0.52,-2.18 0.52,-3.69 0,-1.94 0.11,-11.47 -0.08,-12.6 -0.39,-2.29 -1.96,-3.9 -3.86,-4.62 -1.58,-0.6 -6.12,-0.36 -8.11,-0.36 -2.8,0 -5.6,0 -8.41,0 -1.91,0 -6.95,-0.09 -8.48,0.02 -2.49,0.17 -4.18,1.77 -4.99,3.47 -0.56,1.16 -0.55,2.31 -0.55,3.73 0,1.93 -0.1,11.44 0.07,12.55 0.35,2.27 1.97,3.98 3.8,4.67 1.48,0.55 4.15,0.39 6.01,0.39 0.94,0 1.11,-0.14 1.77,0.31 1.69,1.15 3.37,2.27 5.07,3.4l3.77 2.54c0.26,0.19 1.03,0.74 1.29,0.83z"/>
 </g>
</svg>
