<?xml version="1.0" encoding="UTF-8"?>
<!DOCTYPE svg PUBLIC "-//W3C//DTD SVG 1.1//EN" "http://www.w3.org/Graphics/SVG/1.1/DTD/svg11.dtd">
<!-- Creator: CorelDRAW (Evaluation Version) -->
<svg xmlns="http://www.w3.org/2000/svg" xml:space="preserve" width="50in" height="50.0799in" version="1.1" style="shape-rendering:geometricPrecision; text-rendering:geometricPrecision; image-rendering:optimizeQuality; fill-rule:evenodd; clip-rule:evenodd"
viewBox="0 0 55.84 55.93"
 xmlns:xlink="http://www.w3.org/1999/xlink"
 xmlns:xodm="http://www.corel.com/coreldraw/odm/2003">
 <defs>
  <style type="text/css">
   <![CDATA[
    .fil0 {fill:#CCCCCC}
   ]]>
  </style>
 </defs>
 <g id="PowerClip_x0020_Contents">
  <metadata id="CorelCorpID_0Corel-Layer"/>
  <path class="fil0" d="M4.74 0l16.06 0c2.61,0 4.74,2.13 4.74,4.74l0 9.2c0,2.6 -2.13,4.74 -4.74,4.74l-16.06 0c-2.61,0 -4.73,-2.13 -4.73,-4.74l0 -9.2c0,-2.61 2.13,-4.74 4.73,-4.74zm16.06 55.93l-16.06 0c-2.61,0 -4.74,-2.13 -4.74,-4.74l0 -23.18c0,-2.6 2.13,-4.74 4.74,-4.74l16.06 0c2.6,0 4.73,2.13 4.73,4.74l0 23.18c0,2.61 -2.13,4.74 -4.73,4.74zm30.31 0l-16.05 0c-2.61,0 -4.74,-2.13 -4.74,-4.74l0 -9.2c0,-2.61 2.13,-4.74 4.74,-4.74l16.05 0c2.61,0 4.74,2.13 4.74,4.74l0 9.2c0,2.61 -2.13,4.74 -4.74,4.74zm-16.05 -55.93l16.05 0c2.61,0 4.74,2.13 4.74,4.74l0 23.18c0,2.61 -2.13,4.74 -4.74,4.74l-16.05 0c-2.61,0 -4.74,-2.13 -4.74,-4.74l0 -23.18c0,-2.61 2.13,-4.74 4.74,-4.74z"/>
 </g>
</svg>
