<?xml version="1.0" encoding="UTF-8"?>
<!DOCTYPE svg PUBLIC "-//W3C//DTD SVG 1.1//EN" "http://www.w3.org/Graphics/SVG/1.1/DTD/svg11.dtd">
<!-- Creator: CorelDRAW (Evaluation Version) -->
<svg xmlns="http://www.w3.org/2000/svg" xml:space="preserve" width="50in" height="65.2085in" version="1.1" style="shape-rendering:geometricPrecision; text-rendering:geometricPrecision; image-rendering:optimizeQuality; fill-rule:evenodd; clip-rule:evenodd"
viewBox="0 0 223.58 291.58"
 xmlns:xlink="http://www.w3.org/1999/xlink"
 xmlns:xodm="http://www.corel.com/coreldraw/odm/2003">
 <defs>
  <style type="text/css">
   <![CDATA[
    .fil0 {fill:white}
   ]]>
  </style>
 </defs>
 <g id="PowerClip_x0020_Contents">
  <metadata id="CorelCorpID_0Corel-Layer"/>
  <path class="fil0" d="M70.88 9.11c-5.56,0.39 -42.54,-5.67 -53.56,-7.09 -7.35,-0.96 -11.34,0.07 -12.93,6.64 -1.31,5.4 -2.3,11.18 -3.4,16.65 -1.56,7.74 -2.25,10.45 6.11,12.12l101.02 20.66c11.23,2.34 22.52,4.64 33.86,6.93 9.34,1.88 25.55,4.32 33.45,7.09 -47.73,0.94 -98.2,-0.02 -146.2,0.09l-28.93 0c2.46,23.4 6.08,47.46 9.11,70.67 2.11,16.19 16.46,135.14 19.19,140.3 5.46,10.31 17.95,8.22 31.36,8.22l79.69 0c41.49,0 38.66,2.76 43.67,-36.11l13.75 -106.14c1.45,-11.18 7.74,-64.74 9.37,-70.85 13.84,2.09 11.46,3.1 15.73,-17.61 3.33,-16.19 1.38,-15.89 -13.32,-19.86 -9.69,-2.62 -19.13,-5.21 -28.63,-7.71 -4.89,-1.29 -9.8,-2.59 -14.42,-3.86 -6.93,-1.88 -2.39,-6.43 -6.06,-12.12l-82.86 -17.13c-1.88,2.73 -4.32,6.64 -6.02,9.11zm-23.37 92.55c-7.28,2.02 -4.27,12.21 -3.63,19.58l9.92 113.65c0.67,7.46 1.35,14.97 1.97,22.48 0.53,6.27 0.51,17.68 9.23,14.56 6.36,-2.27 3.67,-11.98 3.08,-18.83l-11.92 -136.19c-0.57,-6.5 -0.02,-17.66 -8.66,-15.24zm109.22 0.02c-6.38,1.86 -5.3,12.08 -5.9,18.85l-5.95 67.96c-1.29,15.06 -2.64,30.08 -3.95,45.14 -0.67,7.48 -1.31,14.95 -1.95,22.48 -0.25,2.87 -1.24,9.37 -0.46,11.87 0.8,2.62 3.93,5.07 7.6,4.09 6.18,-1.65 5.21,-12.19 5.76,-18.67l5.95 -68.1c0.44,-5.1 7.37,-76.2 6.38,-79.58 -0.78,-2.69 -3.9,-5.1 -7.48,-4.04zm-55.35 -0.02c-5.69,2.34 -4.02,9.02 -4.02,19.01l0 138.05c0,3.35 -0.67,7.94 0.83,10.74 1.22,2.32 4.87,3.99 8.31,2.53 5.1,-2.16 3.49,-12.51 3.49,-18.92l0 -138.05c0,-6.18 0.46,-17.1 -8.61,-13.36z"/>
 </g>
</svg>
