<?xml version="1.0" encoding="UTF-8"?>
<!DOCTYPE svg PUBLIC "-//W3C//DTD SVG 1.1//EN" "http://www.w3.org/Graphics/SVG/1.1/DTD/svg11.dtd">
<!-- Creator: CorelDRAW (Evaluation Version) -->
<svg xmlns="http://www.w3.org/2000/svg" xml:space="preserve" width="50in" height="49.8665in" version="1.1" style="shape-rendering:geometricPrecision; text-rendering:geometricPrecision; image-rendering:optimizeQuality; fill-rule:evenodd; clip-rule:evenodd"
viewBox="0 0 106.38 106.09"
 xmlns:xlink="http://www.w3.org/1999/xlink"
 xmlns:xodm="http://www.corel.com/coreldraw/odm/2003">
 <defs>
  <style type="text/css">
   <![CDATA[
    .fil0 {fill:#CCCCCC}
   ]]>
  </style>
 </defs>
 <g id="PowerClip_x0020_Contents">
  <metadata id="CorelCorpID_0Corel-Layer"/>
  <path class="fil0" d="M76.97 0.73c-6.57,1.85 -11.12,7.67 -14.86,11.41 -4.69,4.69 -8.78,8.78 -13.46,13.47l-39.58 39.59c-4.64,5.16 -5.33,11.41 -7.38,19.57 -6.39,25.47 6.27,22.96 23.96,18.38 10.15,-2.62 11.59,-2.73 17.47,-8.65l53.05 -53.04c13.7,-13.64 13.45,-20.65 0.15,-34.08 -4.1,-4.13 -9.97,-9.29 -19.35,-6.65zm-7.01 20.45c4.72,3.59 11.34,12.96 16.27,14.91 1.83,-2.31 6.91,-6.42 7.95,-8.58 2.78,-5.75 -2.7,-8.6 -5.25,-11.17 -2.16,-2.16 -5.58,-7.57 -10.34,-4.38 -1.45,0.98 -7.74,7.65 -8.64,9.21z"/>
 </g>
</svg>
