<?xml version="1.0" encoding="UTF-8"?>
<!DOCTYPE svg PUBLIC "-//W3C//DTD SVG 1.1//EN" "http://www.w3.org/Graphics/SVG/1.1/DTD/svg11.dtd">
<!-- Creator: CorelDRAW (Evaluation Version) -->
<svg xmlns="http://www.w3.org/2000/svg" xml:space="preserve" width="75.0009in" height="50in" version="1.1" style="shape-rendering:geometricPrecision; text-rendering:geometricPrecision; image-rendering:optimizeQuality; fill-rule:evenodd; clip-rule:evenodd"
viewBox="0 0 8522.85 5681.83"
 xmlns:xlink="http://www.w3.org/1999/xlink"
 xmlns:xodm="http://www.corel.com/coreldraw/odm/2003">
 <defs>
  <style type="text/css">
   <![CDATA[
    .fil0 {fill:#CCCCCC}
   ]]>
  </style>
 </defs>
 <g id="PowerClip_x0020_Contents">
  <metadata id="CorelCorpID_0Corel-Layer"/>
  <path class="fil0" d="M513.68 0l1813.55 0c282.56,0 513.68,231.12 513.68,513.68l0 1813.55c0,282.56 231.12,513.68 513.68,513.68l1813.55 0c282.56,0 513.68,-231.12 513.68,-513.68l0 -1813.55c0,-282.56 231.22,-513.68 513.78,-513.68l1813.45 0c282.66,0 513.78,231.12 513.78,513.68l0 1813.55c0,282.56 -231.12,513.68 -513.78,513.68l-1813.45 0c-282.56,0 -513.78,231.12 -513.78,513.78l0 1813.45c0,282.56 -231.12,513.68 -513.68,513.68l-1813.55 0c-282.56,0 -513.68,-231.12 -513.68,-513.68l0 -1813.45c0,-282.66 -231.12,-513.78 -513.68,-513.78l-1813.55 0c-282.56,0 -513.68,-231.12 -513.68,-513.68l0 -1813.55c0,-282.56 231.12,-513.68 513.68,-513.68z"/>
 </g>
</svg>
