<?xml version="1.0" encoding="UTF-8"?>
<!DOCTYPE svg PUBLIC "-//W3C//DTD SVG 1.1//EN" "http://www.w3.org/Graphics/SVG/1.1/DTD/svg11.dtd">
<!-- Creator: CorelDRAW (Evaluation Version) -->
<svg xmlns="http://www.w3.org/2000/svg" xml:space="preserve" width="69.4803in" height="50in" version="1.1" style="shape-rendering:geometricPrecision; text-rendering:geometricPrecision; image-rendering:optimizeQuality; fill-rule:evenodd; clip-rule:evenodd"
viewBox="0 0 273.72 196.97"
 xmlns:xlink="http://www.w3.org/1999/xlink"
 xmlns:xodm="http://www.corel.com/coreldraw/odm/2003">
 <defs>
  <style type="text/css">
   <![CDATA[
    .fil0 {fill:#CCCCCC}
   ]]>
  </style>
 </defs>
 <g id="PowerClip_x0020_Contents">
  <metadata id="CorelCorpID_0Corel-Layer"/>
  <path class="fil0" d="M217.25 25.78c1.07,0.23 1.2,1.67 1.94,3.6l16.89 44.35c1.86,4.99 4.64,11.13 6.06,16.08 -5.65,0.56 -13.85,0.1 -19.76,0.1 -6.61,-0.01 -13.23,0 -19.84,0 -6.65,0 -10.67,2.5 -12.92,6.86 -2.31,4.49 -1.46,13.19 -1.46,18.76l-102.61 0.05c0.11,-10.39 2.48,-25.64 -14.03,-25.67 -7.49,-0.01 -35,0.38 -39.96,-0.1 1.29,-4.42 9.89,-26.21 12.21,-32.17 2.07,-5.38 4.08,-10.77 6.13,-16.11 1.03,-2.68 1.97,-5.2 3.02,-7.92l2.24 -5.97c0.48,-1.31 0.31,-1.41 1.29,-1.86 53.62,0 107.2,-0.03 160.79,0zm-161.48 -25.67c-3.79,0 -9.76,-0.47 -13.03,0.73 -3.39,1.23 -5.93,3.71 -7.32,6.72l-30.71 80.48c-5.01,13.18 -4.69,9.32 -4.69,23.35l-0.01 69.12c0,5.19 -0.05,7.66 2.67,11.36 4.72,6.43 13.41,4.97 23,4.97 74.11,0 148.23,0 222.36,0 15.34,0 25.67,1.46 25.66,-15.66l0 -69.79c0,-14.2 0.33,-9.99 -4.63,-23.09 -2.55,-6.72 -5.09,-13.45 -7.62,-20.09 -5.16,-13.52 -10.24,-26.75 -15.4,-40.37 -2.44,-6.46 -4.9,-13.93 -7.65,-20.05 -1.35,-3.02 -3.72,-5.42 -6.95,-6.76 -3.53,-1.46 -9.13,-0.92 -13.18,-0.92 -54.2,0 -108.35,0 -162.5,0z"/>
 </g>
</svg>
