<?xml version="1.0" encoding="UTF-8"?>
<!DOCTYPE svg PUBLIC "-//W3C//DTD SVG 1.1//EN" "http://www.w3.org/Graphics/SVG/1.1/DTD/svg11.dtd">
<!-- Creator: CorelDRAW (Evaluation Version) -->
<svg xmlns="http://www.w3.org/2000/svg" xml:space="preserve" width="50in" height="50.0059in" version="1.1" style="shape-rendering:geometricPrecision; text-rendering:geometricPrecision; image-rendering:optimizeQuality; fill-rule:evenodd; clip-rule:evenodd"
viewBox="0 0 1212.78 1212.92"
 xmlns:xlink="http://www.w3.org/1999/xlink"
 xmlns:xodm="http://www.corel.com/coreldraw/odm/2003">
 <defs>
  <style type="text/css">
   <![CDATA[
    .fil0 {fill:#999999}
   ]]>
  </style>
 </defs>
 <g id="PowerClip_x0020_Contents">
  <metadata id="CorelCorpID_0Corel-Layer"/>
  <path class="fil0" d="M547.73 3.08c-320.67,31.52 -576.66,308.35 -545.01,663.4 38.25,428.47 505.25,678.3 894.26,473.88 41.47,-21.77 99.06,-61.74 130.65,-97.41 14.33,-16.12 25.07,-19.98 39.11,-38.54 45.2,-59.59 79.29,-104.86 110.38,-190.67 30.44,-84.09 41.61,-171.33 32.59,-268.74 -29.15,-313.51 -310.93,-576.38 -661.97,-541.93zm-340.37 230.28c20.13,15.11 68.98,41.19 98.06,46.49 59.31,-112.6 10.53,-52.79 114.53,-186.87 -65.75,16.98 -191.03,102.78 -212.59,140.39zm-3.94 742.27c42.04,47.7 129.5,120.62 216.6,145.4 -36.1,-48.35 -62.24,-72.49 -92.61,-138.45 -8.81,-19.12 -15.4,-42.12 -26.86,-57.23 -34.52,12.25 -75.28,29.22 -97.13,50.28zm162.02 -67.9c30.51,102.64 107.8,207.65 204.49,235.51l1.65 -268.31c-44.48,-0.86 -177.78,12.25 -206.14,32.8zm275.69 236.15c87.67,-6.59 189.6,-152.71 211.08,-236.15 -24.71,-17.91 -169.54,-34.24 -210.8,-32.66l-0.29 268.81zm159.51 -24.71c76.64,-29.44 179.71,-97.27 212.09,-149.27 -29.15,-12.96 -57.95,-33.88 -96.05,-44.41 -10.39,15.83 -16.83,36.89 -24.64,54.58 -33.45,75.85 -75.85,112.1 -91.4,139.1zm135.95 -255.85c22.35,10.31 41.4,16.69 60.6,27 17.26,9.24 39.54,24.93 55.3,30.87 47.42,-39.47 96.7,-197.04 99.56,-281.13 -36.46,0 -158.01,-5.73 -183.72,3.87 -2.51,40.83 -4.73,75.06 -11.03,115.25 -5.59,35.6 -17.26,72.41 -20.7,104.14zm-295.6 -58.3c38.68,5.73 80.29,6.45 117.68,12.32 41.26,6.37 76,17.41 115.46,24.5 10.39,-62.03 28.94,-131.08 26.14,-199.05l-258.64 -1.07 -0.64 163.31zm-298.75 37.03c38.89,-7.66 70.05,-17.33 111.24,-24.21 40.76,-6.8 77.5,-7.23 117.75,-12.53l0.21 -162.95 -254.78 -0.57c-3.37,73.7 18.19,137.09 25.57,200.27zm-181.86 83.3c37.1,-19.7 74.99,-46.84 120.12,-60.45 -4.66,-33.31 -15.69,-69.55 -21.2,-104.5 -6.37,-40.68 -6.59,-79.08 -12.18,-118.4l-187.37 -0.14c0.07,114.17 55.87,212.37 100.64,283.5zm-100.92 -352.62l188.31 1.07c3.22,-41.4 5.09,-79.51 11.68,-118.61 6.09,-35.96 19.55,-77.64 22.71,-110.23 -20.63,-10.24 -42.47,-18.41 -60.52,-27.86 -18.41,-9.67 -36.96,-23.35 -56.87,-31.8 -52.22,65.97 -100.42,179.93 -105.29,287.44zm257.07 -1.15l253.77 0.5 0.29 -171.4c-40.33,-5.16 -78.93,-6.3 -119.4,-12.68 -35.53,-5.52 -73.92,-18.19 -105.43,-22.13 -15.97,48.49 -30.94,150.63 -29.22,205.71zm325.33 -171.47l-0.72 171.26 259.36 0.57c1.36,-51.86 -8.95,-170.83 -32.38,-206.14 -81.08,18.69 -137.45,28.15 -226.27,34.31zm291.95 -55.15c24.28,124.34 23.21,84.88 34.74,224.62l182.65 2.72c2.08,-88.82 -58.3,-245.46 -103.57,-285.36l-113.81 58.02zm-21.99 -64.32c28.94,-3.51 71.55,-29.44 95.91,-42.47 -24.14,-36.46 -144.83,-130.07 -209.72,-142.82 21.7,23.14 41.76,50.5 62.24,82.87 18.69,29.58 44.34,92.33 51.57,102.43zm-270.75 50.28c43.98,3.37 173.34,-13.61 207.79,-29.58 -12.68,-70.62 -117.83,-225.98 -207.22,-231.35l-0.57 260.94zm-273.11 -29.58c40.83,17.19 154.28,30.87 203.56,29.87l-0.14 -260.58c-61.6,13.97 -97.99,53.36 -127.35,88.03 -20.99,24.85 -69.48,102.35 -76.07,142.68z"/>
 </g>
</svg>
