<?xml version="1.0" encoding="UTF-8"?>
<!DOCTYPE svg PUBLIC "-//W3C//DTD SVG 1.1//EN" "http://www.w3.org/Graphics/SVG/1.1/DTD/svg11.dtd">
<!-- Creator: CorelDRAW (Evaluation Version) -->
<svg xmlns="http://www.w3.org/2000/svg" xml:space="preserve" width="50in" height="69.6627in" version="1.1" style="shape-rendering:geometricPrecision; text-rendering:geometricPrecision; image-rendering:optimizeQuality; fill-rule:evenodd; clip-rule:evenodd"
viewBox="0 0 35.48 49.44"
 xmlns:xlink="http://www.w3.org/1999/xlink"
 xmlns:xodm="http://www.corel.com/coreldraw/odm/2003">
 <defs>
  <style type="text/css">
   <![CDATA[
    .fil0 {fill:#1A1A1A}
   ]]>
  </style>
 </defs>
 <g id="PowerClip_x0020_Contents">
  <metadata id="CorelCorpID_0Corel-Layer"/>
  <path class="fil0" d="M17.74 29.41c-1.12,0 -2.02,0.91 -2.02,2.02l0 5.43c0,1.12 0.91,2.02 2.02,2.02 1.12,0 2.02,-0.91 2.02,-2.02l0 -5.43c0,-1.12 -0.91,-2.02 -2.02,-2.02zm-9.7 20.03l19.41 0c4.42,0 8.04,-3.62 8.04,-8.04l0 -14.68c0,-3.67 -2.49,-6.79 -5.87,-7.74l0 -7.11c0,-3.26 -1.34,-6.22 -3.5,-8.38 -2.15,-2.14 -5.12,-3.48 -8.37,-3.48 -3.26,0 -6.23,1.34 -8.37,3.49 -2.15,2.15 -3.5,5.12 -3.5,8.37l0 7.11c-3.38,0.95 -5.87,4.06 -5.87,7.74l0 14.68c0,4.42 3.62,8.04 8.04,8.04zm16.21 -30.77l-13.01 0 0 -6.81c0,-1.79 0.73,-3.41 1.9,-4.59 1.18,-1.18 2.81,-1.91 4.61,-1.91 1.79,0 3.42,0.73 4.6,1.91 1.18,1.17 1.91,2.8 1.91,4.59l0 6.81zm-14.78 27.2l16.54 0c2.95,0 5.35,-2.41 5.35,-5.36l0 -12.91c0,-2.95 -2.41,-5.36 -5.35,-5.36l-16.54 0c-2.95,0 -5.35,2.41 -5.35,5.36l0 12.91c0,2.95 2.41,5.36 5.35,5.36z"/>
 </g>
</svg>
