<?xml version="1.0" encoding="UTF-8"?>
<!DOCTYPE svg PUBLIC "-//W3C//DTD SVG 1.1//EN" "http://www.w3.org/Graphics/SVG/1.1/DTD/svg11.dtd">
<!-- Creator: CorelDRAW (Evaluation Version) -->
<svg xmlns="http://www.w3.org/2000/svg" xml:space="preserve" width="50in" height="55.5361in" version="1.1" style="shape-rendering:geometricPrecision; text-rendering:geometricPrecision; image-rendering:optimizeQuality; fill-rule:evenodd; clip-rule:evenodd"
viewBox="0 0 52.66 58.49"
 xmlns:xlink="http://www.w3.org/1999/xlink"
 xmlns:xodm="http://www.corel.com/coreldraw/odm/2003">
 <defs>
  <style type="text/css">
   <![CDATA[
    .fil0 {fill:#CCCCCC}
   ]]>
  </style>
 </defs>
 <g id="PowerClip_x0020_Contents">
  <metadata id="CorelCorpID_0Corel-Layer"/>
  <path class="fil0" d="M25.52 0.09c-3.44,0.76 -2.94,3.89 -2.94,7.41l0 20.84c0,1.64 -0.22,3.16 0.74,4.32 0.79,0.94 1.98,1.86 3.93,1.4 3.17,-0.76 2.79,-4.18 2.79,-7.57l0 -20.84c-0,-1.67 0,-3.19 -0.84,-4.33 -0.63,-0.84 -2.1,-1.58 -3.69,-1.23zm12.36 9.79c-1.29,0.42 -2.16,1.17 -2.53,2.55 -0.82,3.05 1.87,4.26 3.8,5.88 0.75,0.63 1.75,1.79 2.43,2.74 2.86,4 4.58,9.99 2.97,16.07 -0.74,2.78 -1.99,4.86 -3.42,6.74 -1.41,1.86 -3.2,3.33 -5.45,4.7 -7.17,4.34 -16.71,2.76 -22.63,-2.85 -5.74,-5.44 -7.41,-14.96 -3.39,-22.44 1.06,-1.97 2.78,-4.22 4.53,-5.62 0.91,-0.73 1.95,-1.21 2.48,-2.5 0.58,-1.41 0.12,-3.07 -0.65,-3.96 -2.08,-2.39 -5.01,-0.84 -6.92,1 -1.82,1.75 -3.13,2.9 -4.75,5.39 -9.49,14.58 -2.61,33.77 12.68,39.26 12.26,4.39 25.2,-0.36 31.52,-10.55 6.1,-9.84 5.28,-22.42 -1.65,-30.57 -0.48,-0.57 -0.72,-0.99 -1.17,-1.41 -2.25,-2.1 -4.98,-5.38 -7.85,-4.43z"/>
 </g>
</svg>
