<?xml version="1.0" encoding="UTF-8"?>
<!DOCTYPE svg PUBLIC "-//W3C//DTD SVG 1.1//EN" "http://www.w3.org/Graphics/SVG/1.1/DTD/svg11.dtd">
<!-- Creator: CorelDRAW (Evaluation Version) -->
<svg xmlns="http://www.w3.org/2000/svg" xml:space="preserve" width="47.8031in" height="50in" version="1.1" style="shape-rendering:geometricPrecision; text-rendering:geometricPrecision; image-rendering:optimizeQuality; fill-rule:evenodd; clip-rule:evenodd"
viewBox="0 0 128.94 134.86"
 xmlns:xlink="http://www.w3.org/1999/xlink"
 xmlns:xodm="http://www.corel.com/coreldraw/odm/2003">
 <defs>
  <style type="text/css">
   <![CDATA[
    .fil0 {fill:#CCCCCC}
   ]]>
  </style>
 </defs>
 <g id="PowerClip_x0020_Contents">
  <metadata id="CorelCorpID_0Corel-Layer"/>
  <g id="_1804884957840">
   <path class="fil0" d="M-0 73.69c0.3,1.03 0.11,4.71 0.78,7.01 0.24,0.86 0.39,1.13 1.34,1.26 6.73,0.97 20.94,-2.44 26.92,-4.49 9.22,-3.16 16.33,-7.05 23.25,-13.36 2.19,-2 5.58,-6.02 7.05,-8.76 1.16,-2.16 2.31,-4.8 3.21,-7.26 4.1,-11.32 5.41,-24.9 4.61,-37.08 -0.18,-2.79 -0.47,-6.7 -1.19,-9.25 -0.36,-1.25 -1.76,-1.19 -3.87,-1.39 -1.02,-0.1 -4.27,-0.17 -4.93,-0.36l-5.76 0c-1.64,0.47 -8.51,0.1 -10.98,2.31 -1.04,0.93 -0.19,3.37 0.21,5.48 0.36,1.94 0.69,3.83 0.93,5.82 1.05,8.61 0.31,16.11 -3.12,23.05 -3.04,6.17 -7.9,10.14 -14.13,12.83 -5.22,2.25 -10.53,3.43 -16.39,3.84 -1.24,0.08 -6.17,-0.1 -6.62,0.53 -0.56,0.8 -0.87,4.98 -0.93,5.85 -0.1,1.32 -0.15,5.81 -0.38,6.68l0 7.28z"/>
   <path class="fil0" d="M88.98 134.86l0.49 0c0.53,-0.3 1.89,-0.73 2.57,-0.99 4.11,-1.59 14,-6 16.77,-7.99 -0.11,-1.68 -2.82,-7.42 -3.61,-9.11 -2.36,-5.12 -6.11,-11.68 -9.26,-16.2 -4.91,-7.06 -11.61,-14.94 -19.56,-18.56 -12.94,-5.88 -27.36,1.31 -37.34,9.05 -6.21,4.83 -11.14,9.67 -16.18,15.75 -0.89,1.08 -1.9,2.35 -2.73,3.6 -1.13,1.72 -1.86,2.15 -0.47,4.25 1.64,2.51 6.74,7.82 9.13,9.87 1.06,0.91 5.76,5.35 6.99,5.66 0.72,-0.62 2.23,-3.51 2.82,-4.6 4.87,-8.91 14.91,-25.25 26.22,-24.98 11.18,0.27 17.68,14.33 20.75,23.12 0.64,1.82 1.21,3.64 1.76,5.54 0.54,1.86 1.04,3.92 1.65,5.6z"/>
   <path class="fil0" d="M128.94 68.11l0 -6.08c-0.14,-0.41 -0.13,-1.08 -0.19,-1.57 -0.14,-1.04 -0.17,-1.06 -0.56,-1.27 -1.78,-0.96 -28.99,7.03 -26.42,-12.46 0.87,-6.63 4.98,-12.49 8.52,-17.08 1.95,-2.54 3.1,-3.56 4.67,-5.51 0.59,-0.72 1.87,-1.96 2.24,-2.8 -0.28,-0.49 -2.55,-1.92 -3.22,-2.38 -5.48,-3.83 -11.25,-7.83 -16.97,-11.25 -2.28,-1.36 -2.61,-1.49 -3.63,-0.19 -0.71,0.9 -1.43,2.23 -2.07,3.43 -4.7,8.93 -9.32,23.64 -10.99,33.86 -1.07,6.53 -1.73,14.33 1.37,19.65 4.85,8.34 17.9,14.52 26.98,17.88 3.09,1.15 14.38,4.98 17.7,4.51 2.13,-3.9 2.1,-17.5 2.57,-18.74z"/>
  </g>
 </g>
</svg>
