<?xml version="1.0" encoding="UTF-8"?>
<!DOCTYPE svg PUBLIC "-//W3C//DTD SVG 1.1//EN" "http://www.w3.org/Graphics/SVG/1.1/DTD/svg11.dtd">
<!-- Creator: CorelDRAW (Evaluation Version) -->
<svg xmlns="http://www.w3.org/2000/svg" xml:space="preserve" width="78.8772in" height="15in" version="1.1" style="shape-rendering:geometricPrecision; text-rendering:geometricPrecision; image-rendering:optimizeQuality; fill-rule:evenodd; clip-rule:evenodd"
viewBox="0 0 21621.76 4111.79"
 xmlns:xlink="http://www.w3.org/1999/xlink"
 xmlns:xodm="http://www.corel.com/coreldraw/odm/2003">
 <defs>
  <style type="text/css">
   <![CDATA[
    .fil0 {fill:#CCCCCC}
   ]]>
  </style>
 </defs>
 <g id="Layer_x0020_1">
  <metadata id="CorelCorpID_0Corel-Layer"/>
  <path class="fil0" d="M615.37 3566.34c410.24,363.63 895.07,545.45 1459.16,545.45 550.1,0 1025.61,-186.5 1431.19,-554.78 405.59,-368.29 606.04,-876.44 606.04,-1519.78 0,-568.74 -200.45,-1048.9 -606.04,-1445.18 -405.59,-396.25 -895.07,-592.06 -1468.49,-592.06 -573.39,0 -1058.23,200.45 -1449.83,601.39 -391.6,400.93 -587.4,876.44 -587.4,1435.85 0,652.67 205.13,1165.47 615.37,1529.11zm17482.03 -2964.95c-391.6,400.93 -587.4,876.44 -587.4,1435.85 0,652.67 205.13,1165.47 615.37,1529.11 410.24,363.63 895.07,545.45 1459.16,545.45 550.1,0 1025.61,-186.5 1431.19,-554.78 405.59,-368.29 606.04,-876.44 606.04,-1519.78 0,-568.74 -200.45,-1048.9 -606.04,-1445.18 -405.59,-396.25 -895.07,-592.06 -1468.49,-592.06 -573.39,0 -1058.23,200.45 -1449.83,601.39zm-8755 0c-391.6,400.93 -587.4,876.44 -587.4,1435.85 0,652.67 205.13,1165.47 615.37,1529.11 410.24,363.63 895.07,545.45 1459.16,545.45 550.1,0 1025.61,-186.5 1431.19,-554.78 405.59,-368.29 606.04,-876.44 606.04,-1519.78 0,-568.74 -200.45,-1048.9 -606.04,-1445.18 -405.59,-396.25 -895.07,-592.06 -1468.49,-592.06 -573.39,0 -1058.23,200.45 -1449.83,601.39z"/>
 </g>
</svg>
