<?xml version="1.0" encoding="UTF-8"?>
<!DOCTYPE svg PUBLIC "-//W3C//DTD SVG 1.1//EN" "http://www.w3.org/Graphics/SVG/1.1/DTD/svg11.dtd">
<!-- Creator: CorelDRAW (Evaluation Version) -->
<svg xmlns="http://www.w3.org/2000/svg" xml:space="preserve" width="54.2403in" height="50in" version="1.1" style="shape-rendering:geometricPrecision; text-rendering:geometricPrecision; image-rendering:optimizeQuality; fill-rule:evenodd; clip-rule:evenodd"
viewBox="0 0 44.55 41.07"
 xmlns:xlink="http://www.w3.org/1999/xlink"
 xmlns:xodm="http://www.corel.com/coreldraw/odm/2003">
 <defs>
  <style type="text/css">
   <![CDATA[
    .fil0 {fill:#CCCCCC}
   ]]>
  </style>
 </defs>
 <g id="PowerClip_x0020_Contents">
  <metadata id="CorelCorpID_0Corel-Layer"/>
  <g id="_1804881837344">
   <path class="fil0" d="M39.5 20.94c-0.38,0.64 -0.33,0.69 -0.82,1.19l-11.65 11.65c-1.4,1.4 -2.79,2.91 -4.24,4.24 -0.89,0.82 -2.01,0.99 -2.85,-0.04 -1.01,-1.24 -0.06,-2.22 0.57,-2.85l3.18 -3.17c0.37,-0.36 0.64,-0.74 1.01,-1.11l6.36 -6.34c0.59,-0.59 1.64,-1.5 2.11,-2.13 -1.18,0 -30.83,0.09 -31.65,-0.04 -0.91,-0.15 -1.12,-0.74 -1.53,-1.4l0 -0.81c0.42,-0.7 0.56,-1.23 1.53,-1.39 0.87,-0.14 30.41,-0.04 31.64,-0.04 -0.38,-0.55 -1.57,-1.61 -2.1,-2.13l-10.59 -10.59c-0.6,-0.59 -1.54,-1.66 -0.55,-2.88 0.84,-1.03 1.97,-0.86 2.86,-0.04 1.45,1.35 2.82,2.82 4.24,4.24l11.65 11.65c0.49,0.49 0.44,0.55 0.82,1.19l0 0.83z"/>
   <rect class="fil0" x="41.03" width="3.52" height="41.07" rx="33.21" ry="25.82"/>
  </g>
 </g>
</svg>
