<?xml version="1.0" encoding="UTF-8"?>
<!DOCTYPE svg PUBLIC "-//W3C//DTD SVG 1.1//EN" "http://www.w3.org/Graphics/SVG/1.1/DTD/svg11.dtd">
<!-- Creator: CorelDRAW (Evaluation Version) -->
<svg xmlns="http://www.w3.org/2000/svg" xml:space="preserve" width="50in" height="57.7248in" version="1.1" style="shape-rendering:geometricPrecision; text-rendering:geometricPrecision; image-rendering:optimizeQuality; fill-rule:evenodd; clip-rule:evenodd"
viewBox="0 0 38.22 44.13"
 xmlns:xlink="http://www.w3.org/1999/xlink"
 xmlns:xodm="http://www.corel.com/coreldraw/odm/2003">
 <defs>
  <style type="text/css">
   <![CDATA[
    .fil0 {fill:#99CC66}
   ]]>
  </style>
 </defs>
 <g id="PowerClip_x0020_Contents">
  <metadata id="CorelCorpID_0Corel-Layer"/>
  <g id="_1804886468160">
   <path class="fil0" d="M19.11 -0l9.56 5.51 9.56 5.52 0 11.03 0 11.03 -9.56 5.52 -9.56 5.51 -9.56 -5.51 -9.55 -5.52 0 -11.03 0 -11.03 9.55 -5.52 9.56 -5.51zm0 3l8.26 4.77 8.26 4.77 0 9.53 0 9.53 -8.26 4.77 -8.26 4.77 -8.26 -4.77 -8.26 -4.77 0 -9.53 0 -9.53 8.26 -4.77 8.26 -4.77z"/>
   <g>
    <polygon class="fil0" points="19.11,8.25 25.09,11.7 31.08,15.15 31.08,22.06 31.08,28.97 25.09,32.43 19.11,35.88 13.13,32.43 7.15,28.97 7.15,22.06 7.15,15.15 13.13,11.7 "/>
   </g>
  </g>
 </g>
</svg>
