<?xml version="1.0" encoding="UTF-8"?>
<!DOCTYPE svg PUBLIC "-//W3C//DTD SVG 1.1//EN" "http://www.w3.org/Graphics/SVG/1.1/DTD/svg11.dtd">
<!-- Creator: CorelDRAW (Evaluation Version) -->
<svg xmlns="http://www.w3.org/2000/svg" xml:space="preserve" width="50.1301in" height="50in" version="1.1" style="shape-rendering:geometricPrecision; text-rendering:geometricPrecision; image-rendering:optimizeQuality; fill-rule:evenodd; clip-rule:evenodd"
viewBox="0 0 56.93 56.78"
 xmlns:xlink="http://www.w3.org/1999/xlink"
 xmlns:xodm="http://www.corel.com/coreldraw/odm/2003">
 <defs>
  <style type="text/css">
   <![CDATA[
    .fil0 {fill:#CCCCCC}
   ]]>
  </style>
 </defs>
 <g id="PowerClip_x0020_Contents">
  <metadata id="CorelCorpID_0Corel-Layer"/>
  <path class="fil0" d="M41.19 0.39c-3.52,0.99 -5.95,4.1 -7.95,6.11 -2.51,2.51 -4.7,4.7 -7.2,7.21l-21.18 21.19c-2.48,2.77 -2.85,6.11 -3.95,10.48 -3.42,13.63 3.36,12.29 12.82,9.83 5.43,-1.4 6.2,-1.46 9.35,-4.63l28.39 -28.38c7.33,-7.3 7.2,-11.05 0.08,-18.24 -2.19,-2.21 -5.34,-4.97 -10.36,-3.56zm-35.49 50.63c13.31,-2.27 11.88,-3.27 20,-11.39l15.75 -15.59c-0.97,-2.01 -6.32,-6.64 -8.16,-8.64 -1.49,0.9 -20.54,20.35 -23.66,23.41 -1.95,1.9 -3.33,9.11 -3.92,12.21zm31.74 -39.68c2.53,1.92 6.07,6.93 8.71,7.98 0.98,-1.24 3.69,-3.43 4.25,-4.59 1.49,-3.08 -1.44,-4.61 -2.81,-5.98 -1.15,-1.15 -2.98,-4.05 -5.53,-2.34 -0.78,0.52 -4.15,4.1 -4.63,4.93z"/>
 </g>
</svg>
