<?xml version="1.0" encoding="UTF-8"?>
<!DOCTYPE svg PUBLIC "-//W3C//DTD SVG 1.1//EN" "http://www.w3.org/Graphics/SVG/1.1/DTD/svg11.dtd">
<!-- Creator: CorelDRAW (Evaluation Version) -->
<svg xmlns="http://www.w3.org/2000/svg" xml:space="preserve" width="49.9941in" height="50in" version="1.1" style="shape-rendering:geometricPrecision; text-rendering:geometricPrecision; image-rendering:optimizeQuality; fill-rule:evenodd; clip-rule:evenodd"
viewBox="0 0 135.31 135.32"
 xmlns:xlink="http://www.w3.org/1999/xlink"
 xmlns:xodm="http://www.corel.com/coreldraw/odm/2003">
 <defs>
  <style type="text/css">
   <![CDATA[
    .fil0 {fill:#727272}
   ]]>
  </style>
 </defs>
 <g id="PowerClip_x0020_Contents">
  <metadata id="CorelCorpID_0Corel-Layer"/>
  <path class="fil0" d="M48.99 102.55c-5.96,6.67 -13.47,13.51 -20.04,20.08 -4.17,4.16 -15.38,19.43 -25.51,9.25 -10.08,-10.13 4.79,-21.05 8.92,-25.19l20.41 -20.38c-6.9,-13.54 -11.4,-23.15 -7.94,-41.46 8.21,-43.54 63.2,-59.94 94.22,-28.56 30.97,31.34 15.5,84.96 -27.97,94.08 -17.63,3.7 -29.64,-0.86 -42.09,-7.82zm35.61 -85.18c39.08,6.24 41.93,53 19.44,68.45 -8.36,5.74 -16.25,10.21 -30.01,8.37 -19.49,-2.62 -36.24,-21.37 -32.87,-44.01 2.81,-18.99 20.7,-36.44 43.44,-32.81z"/>
 </g>
</svg>
