<?xml version="1.0" encoding="UTF-8"?>
<!DOCTYPE svg PUBLIC "-//W3C//DTD SVG 1.1//EN" "http://www.w3.org/Graphics/SVG/1.1/DTD/svg11.dtd">
<!-- Creator: CorelDRAW (Evaluation Version) -->
<svg xmlns="http://www.w3.org/2000/svg" xml:space="preserve" width="87.2269in" height="50in" version="1.1" style="shape-rendering:geometricPrecision; text-rendering:geometricPrecision; image-rendering:optimizeQuality; fill-rule:evenodd; clip-rule:evenodd"
viewBox="0 0 214.7 123.07"
 xmlns:xlink="http://www.w3.org/1999/xlink"
 xmlns:xodm="http://www.corel.com/coreldraw/odm/2003">
 <defs>
  <style type="text/css">
   <![CDATA[
    .fil0 {fill:white}
   ]]>
  </style>
 </defs>
 <g id="PowerClip_x0020_Contents">
  <metadata id="CorelCorpID_0Corel-Layer"/>
  <path class="fil0" d="M102.37 102.24c-5.39,-2.35 -16.95,-11.45 -18.49,2.85 -0.9,8.34 9.49,15.35 16.47,17.98 9.72,-3.62 48.33,-45.2 57.73,-54.54 6.99,-6.96 54.88,-53.9 56.27,-57.41 0.83,-2.08 2.37,-25.06 -26.73,4.74 -18.63,19.06 -76.79,73.78 -85.25,86.38zm-55.2 -0.47c-20.99,-17.57 -28.45,-37.37 -45.02,-32.06 -6.31,14.91 1.9,11.6 16.4,27.72 34.23,38.11 23.95,34.72 85.74,-27.09 7.51,-7.51 54.72,-52.85 56.28,-58.21 3.76,-13.05 -4.75,-20.57 -28.1,4.2l-85.31 85.45z"/>
 </g>
</svg>
