<?xml version="1.0" encoding="UTF-8"?>
<!DOCTYPE svg PUBLIC "-//W3C//DTD SVG 1.1//EN" "http://www.w3.org/Graphics/SVG/1.1/DTD/svg11.dtd">
<!-- Creator: CorelDRAW (Evaluation Version) -->
<svg xmlns="http://www.w3.org/2000/svg" xml:space="preserve" width="50in" height="49.9607in" version="1.1" style="shape-rendering:geometricPrecision; text-rendering:geometricPrecision; image-rendering:optimizeQuality; fill-rule:evenodd; clip-rule:evenodd"
viewBox="0 0 58.53 58.48"
 xmlns:xlink="http://www.w3.org/1999/xlink"
 xmlns:xodm="http://www.corel.com/coreldraw/odm/2003">
 <defs>
  <style type="text/css">
   <![CDATA[
    .fil0 {fill:#CCCCCC}
   ]]>
  </style>
 </defs>
 <g id="PowerClip_x0020_Contents">
  <metadata id="CorelCorpID_0Corel-Layer"/>
  <path class="fil0" d="M36.86 0.07c-1.63,0.6 -2.82,4.02 -4.01,5.34 -0.97,1.07 -1.99,0.9 -3.72,0.91 -1.76,0.01 -2.91,0.23 -3.87,-0.9 -1.04,-1.22 -2.62,-4.93 -4.2,-5.28 -1.17,-0.26 -2.66,0.62 -3.62,1.01 -1.15,0.48 -2.53,0.88 -3.15,1.65 -1.48,1.81 1.03,5.43 0.63,7.7 -0.23,1.34 -1.35,2 -1.98,2.67 -0.68,0.71 -1.4,1.85 -2.77,2.03 -2.3,0.3 -5.87,-2.07 -7.66,-0.46 -0.58,0.52 -1.11,2.19 -1.5,3.15 -0.44,1.08 -1.29,2.54 -0.88,3.77 0.48,1.46 4.14,2.92 5.34,3.98 1.01,0.89 0.9,2.04 0.91,3.72 0.02,4 -0.17,3.44 -3.72,5.72 -3.09,1.99 -3.05,2.26 -1.45,5.97 0.5,1.15 0.87,2.48 1.65,3.15 1.73,1.47 5.51,-1.05 7.78,-0.62 1.28,0.25 2.02,1.41 2.67,2.03 0.73,0.69 1.83,1.41 1.96,2.82 0.21,2.29 -2.1,5.88 -0.39,7.62 0.53,0.54 2.33,1.12 3.18,1.47 1.07,0.43 2.5,1.3 3.77,0.8 1.5,-0.58 2.77,-4.16 3.94,-5.37 0.96,-0.99 2.14,-0.81 3.8,-0.83 3.68,-0.05 3.4,0.21 5.64,3.79 1.99,3.21 2.43,2.84 6.02,1.34 1.14,-0.47 2.5,-0.92 3.09,-1.71 1.31,-1.76 -0.99,-5.37 -0.7,-7.49 0.19,-1.44 1.2,-1.96 1.93,-2.71 0.64,-0.66 1.43,-1.84 2.71,-2.07 2.23,-0.4 5.91,2.01 7.69,0.47 0.7,-0.6 1.18,-2.1 1.56,-3.1 0.39,-1.02 1.3,-2.53 0.96,-3.75 -0.44,-1.56 -4.04,-2.95 -5.3,-4.02 -1.04,-0.89 -0.98,-1.94 -0.98,-3.65 -0,-1.65 -0.23,-3 0.82,-3.95 1.2,-1.08 4.9,-2.62 5.33,-4.14 0.41,-1.44 -2.05,-6.35 -2.57,-6.81 -1.8,-1.6 -5.4,0.89 -7.7,0.55 -1.36,-0.2 -2.06,-1.34 -2.73,-1.98 -0.7,-0.68 -1.84,-1.45 -2.02,-2.77 -0.31,-2.33 2.09,-5.91 0.45,-7.66 -0.36,-0.39 -5.47,-2.91 -6.89,-2.39zm-8.95 16.98c-6.28,0.76 -11.71,6.33 -10.82,13.59 0.77,6.31 6.34,11.59 13.6,10.76 6.16,-0.7 11.65,-6.39 10.76,-13.6 -0.77,-6.25 -6.4,-11.62 -13.54,-10.75z"/>
 </g>
</svg>
