<?xml version="1.0" encoding="UTF-8"?>
<!DOCTYPE svg PUBLIC "-//W3C//DTD SVG 1.1//EN" "http://www.w3.org/Graphics/SVG/1.1/DTD/svg11.dtd">
<!-- Creator: CorelDRAW (Evaluation Version) -->
<svg xmlns="http://www.w3.org/2000/svg" xml:space="preserve" width="70.2751in" height="50in" version="1.1" style="shape-rendering:geometricPrecision; text-rendering:geometricPrecision; image-rendering:optimizeQuality; fill-rule:evenodd; clip-rule:evenodd"
viewBox="0 0 149.64 106.46"
 xmlns:xlink="http://www.w3.org/1999/xlink"
 xmlns:xodm="http://www.corel.com/coreldraw/odm/2003">
 <defs>
  <style type="text/css">
   <![CDATA[
    .fil0 {fill:#CCCCCC}
   ]]>
  </style>
 </defs>
 <g id="PowerClip_x0020_Contents">
  <metadata id="CorelCorpID_0Corel-Layer"/>
  <path class="fil0" d="M108.21 0l-4.41 0c-3.21,1.26 -6.91,-0.18 -15.2,6.68 -1.25,1.03 -3.35,3.75 -4.3,5.14 -2.73,4.04 -4.2,9.71 -4.03,14.84 0.6,18.16 19.62,29.94 36.13,22.56 3.26,-1.45 5.13,-2.85 7.48,-5.11 0.44,-0.42 1.2,-1.07 1.58,-1.56 0.46,-0.61 0.87,-1.1 1.38,-1.78 0.79,-1.03 1.74,-2.59 2.36,-3.92 3.81,-8.13 3.27,-17.33 -1.45,-24.89 -2.42,-3.88 -5.76,-6.8 -9.84,-9.05 -1.26,-0.69 -3,-1.39 -4.47,-1.82 -1.24,-0.37 -4.43,-0.77 -5.23,-1.09zm41.43 90.87l0 -4.03c-0.4,-0.86 -0.66,-4.81 -0.95,-6.25 -1.96,-9.45 -5.76,-16.38 -11.94,-23.32 -0.89,-1.01 -6.21,-5.9 -7.87,-6.33 -0.97,1.28 -2.97,2.54 -4.51,3.58 -9.04,6.11 -21.73,6.89 -31.73,2.65 -6.43,-2.73 -8.08,-5.22 -9.72,-6.2 -1.23,0.48 -3.87,2.81 -4.99,3.81 -0.33,0.29 -0.57,0.45 -0.92,0.75 -1.18,1.02 -3.48,3.61 -5.25,5.93 15.72,13.25 20.07,29.43 20.07,29.43l-3.87 0.01 61.69 -0.03zm-149.59 15.59l87.25 0c0.45,-8.78 -2.52,-17.73 -6,-24.21 -0.93,-1.73 -1.95,-3.15 -2.97,-4.64 -0.54,-0.8 -1.09,-1.45 -1.65,-2.17l-1.72 -1.92c-2.32,-2.38 -3.24,-3.45 -5.94,-5.49 -0.66,-0.5 -1.4,-1.04 -2.17,-1.51l-2.35 1.82c-1.99,1.6 -5.06,3.41 -7.51,4.41 -4.08,1.68 -8.45,2.7 -13.33,2.7 -7.55,0 -16.65,-3.12 -22.02,-8.06 -0.4,-0.37 -0.64,-0.63 -1.15,-0.82 -1.55,0.91 -2.91,2.12 -4.31,3.27l-1.99 1.83c-0.73,0.66 -1.11,1.2 -1.91,1.9l-1.76 2.05c-0.57,0.67 -1.05,1.41 -1.64,2.17 -0.93,1.24 -2.01,3.03 -2.87,4.58 -3.42,6.1 -6.4,15.74 -5.96,24.09zm41.62 -90.84c-17.98,1.06 -29.41,21.01 -20.77,37.61 0.73,1.39 1.62,2.83 2.53,3.93 1.09,1.32 1.88,2.34 3.14,3.32 2.97,2.29 3.77,3.13 7.95,4.81 6.75,2.72 14.86,2.03 21.19,-1.3 2.4,-1.26 5.71,-3.64 7.23,-5.68 1.02,-1.38 1.52,-1.59 2.69,-3.6 5.55,-9.59 5.03,-20.77 -1.74,-29.39 -5.28,-6.73 -13.54,-10.22 -22.21,-9.71z"/>
 </g>
</svg>
