<?xml version="1.0" encoding="UTF-8"?>
<!DOCTYPE svg PUBLIC "-//W3C//DTD SVG 1.1//EN" "http://www.w3.org/Graphics/SVG/1.1/DTD/svg11.dtd">
<!-- Creator: CorelDRAW (Evaluation Version) -->
<svg xmlns="http://www.w3.org/2000/svg" xml:space="preserve" width="64.3074in" height="50in" version="1.1" style="shape-rendering:geometricPrecision; text-rendering:geometricPrecision; image-rendering:optimizeQuality; fill-rule:evenodd; clip-rule:evenodd"
viewBox="0 0 896.85 697.32"
 xmlns:xlink="http://www.w3.org/1999/xlink"
 xmlns:xodm="http://www.corel.com/coreldraw/odm/2003">
 <defs>
  <style type="text/css">
   <![CDATA[
    .fil0 {fill:#1A1A1A;fill-rule:nonzero}
   ]]>
  </style>
 </defs>
 <g id="PowerClip_x0020_Contents">
  <metadata id="CorelCorpID_0Corel-Layer"/>
  <path class="fil0" d="M225.08 439.84c16.23,17.95 34.08,37.63 54.34,57.12l401.71 -402.19c50.99,-54.15 91.88,-81.7 121.94,-90.73 19.68,-5.85 37.54,-5.18 52.61,0.97 17.86,7.3 29.86,20.93 36.29,38.69 6.82,19.2 6.43,43.49 -0.77,68.84 -9.69,32.65 -178.2,197.59 -258.56,276.03l-158.99 161.58c-79.59,83.14 -123.08,128.46 -165.81,141.9 -64.04,20.17 -98.6,-18.43 -173.2,-102.54l-28.14 -31.58c-21.32,-23.71 -40.52,-38.79 -55.02,-50.12 -49.72,-38.88 -67.87,-53.19 -34.56,-132.11l7.19 -17.09 17.76 -5.76c80.94,-25.93 123.77,21.41 183.2,86.98z"/>
 </g>
</svg>
