<?xml version="1.0" encoding="UTF-8"?>
<!DOCTYPE svg PUBLIC "-//W3C//DTD SVG 1.1//EN" "http://www.w3.org/Graphics/SVG/1.1/DTD/svg11.dtd">
<!-- Creator: CorelDRAW (Evaluation Version) -->
<svg xmlns="http://www.w3.org/2000/svg" xml:space="preserve" width="50in" height="50in" version="1.1" style="shape-rendering:geometricPrecision; text-rendering:geometricPrecision; image-rendering:optimizeQuality; fill-rule:evenodd; clip-rule:evenodd"
viewBox="0 0 23.28 23.28"
 xmlns:xlink="http://www.w3.org/1999/xlink"
 xmlns:xodm="http://www.corel.com/coreldraw/odm/2003">
 <defs>
  <style type="text/css">
   <![CDATA[
    .fil0 {fill:#CCCCCC}
   ]]>
  </style>
 </defs>
 <g id="PowerClip_x0020_Contents">
  <metadata id="CorelCorpID_0Corel-Layer"/>
  <path class="fil0" d="M11.64 0c-6.43,0 -11.64,5.21 -11.64,11.64 0,6.43 5.21,11.64 11.64,11.64 6.43,0 11.64,-5.21 11.64,-11.64 0,-6.43 -5.21,-11.64 -11.64,-11.64zm0 4.41c-3.99,0 -7.23,3.24 -7.23,7.23 0,3.99 3.24,7.23 7.23,7.23 3.99,0 7.23,-3.24 7.23,-7.23 0,-3.99 -3.24,-7.23 -7.23,-7.23zm0 -2.36c-5.3,0 -9.59,4.29 -9.59,9.59 0,5.3 4.29,9.59 9.59,9.59 5.3,0 9.59,-4.29 9.59,-9.59 0,-5.3 -4.29,-9.59 -9.59,-9.59z"/>
 </g>
</svg>
